/* XPM */
static char *result[] = {
/* columns rows colors chars-per-pixel */
"50 50 224 2 ",
"   c #15181C",
".  c #3A1B1C",
"X  c #171B22",
"o  c #191D23",
"O  c #291F22",
"+  c #1E2126",
"@  c #1D222B",
"#  c #252326",
"$  c #22252C",
"%  c #25292E",
"&  c #352426",
"*  c #252532",
"=  c #252A33",
"-  c #2A2D35",
";  c #252C3B",
":  c #2B2E3A",
">  c #2B3037",
",  c #2D333C",
"<  c #31353D",
"1  c #35363E",
"2  c #501717",
"3  c #681A17",
"4  c #4D272C",
"5  c #483A3C",
"6  c #6C2627",
"7  c #404236",
"8  c #342B46",
"9  c #2D3444",
"0  c #2B3448",
"q  c #323444",
"w  c #343A44",
"e  c #393B47",
"r  c #343B4B",
"t  c #393D4A",
"y  c #2B3751",
"u  c #383B53",
"i  c #3B3D53",
"p  c #333F5B",
"a  c #323F60",
"s  c #453A44",
"d  c #543542",
"f  c #453B55",
"g  c #4D3B63",
"h  c #3D4147",
"j  c #3B414C",
"k  c #3C4452",
"l  c #39445B",
"z  c #3A445C",
"x  c #3A4664",
"c  c #3D4962",
"v  c #38476A",
"b  c #394C77",
"n  c #3C5179",
"m  c #43434D",
"M  c #424653",
"N  c #434A55",
"B  c #444D5B",
"V  c #484A5B",
"C  c #564D55",
"Z  c #47535D",
"A  c #4A525E",
"S  c #624758",
"D  c #424B65",
"F  c #4C4867",
"G  c #554669",
"H  c #4C5463",
"J  c #43516E",
"K  c #4A566C",
"L  c #4D5968",
"P  c #535964",
"I  c #555768",
"U  c #535C6A",
"Y  c #414E70",
"T  c #5C4E74",
"R  c #435576",
"E  c #4B5874",
"W  c #435779",
"Q  c #465879",
"!  c #575978",
"~  c #614B7A",
"^  c #57626E",
"/  c #566473",
"(  c #5B6373",
")  c #5A6A75",
"_  c #55627C",
"`  c #5C657D",
"'  c #656976",
"]  c #6F6E72",
"[  c #6B717D",
"{  c #881B17",
"}  c #9A201D",
"|  c #842C2E",
" . c #A03A59",
".. c #9E6E74",
"X. c #A07A7C",
"o. c #3B5488",
"O. c #455985",
"+. c #6A4D84",
"@. c #6C5586",
"#. c #785C8B",
"$. c #7B5A96",
"%. c #4F6181",
"&. c #576787",
"*. c #496191",
"=. c #546B95",
"-. c #586F9A",
";. c #5C749E",
":. c #626D82",
">. c #6A6A85",
",. c #7F658F",
"<. c #637184",
"1. c #6E7886",
"2. c #63738B",
"3. c #6B768A",
"4. c #737984",
"5. c #776696",
"6. c #6A7693",
"7. c #61769D",
"8. c #6B7C9B",
"9. c #737C96",
"0. c #7F5DA4",
"q. c #6078A3",
"w. c #6B7FA0",
"e. c #845C99",
"r. c #AB7B9C",
"t. c #8B5FA5",
"y. c #8766A5",
"u. c #976BAC",
"i. c #8A76AC",
"p. c #9C76B9",
"a. c #A878BB",
"s. c #A379C3",
"d. c #71808E",
"f. c #778294",
"g. c #788396",
"h. c #74839C",
"j. c #79859C",
"k. c #7C899B",
"l. c #6D81A2",
"z. c #6D83AA",
"x. c #7384A3",
"c. c #7788A4",
"v. c #7A8AA6",
"b. c #7387A8",
"n. c #758AAB",
"m. c #7B8DAB",
"M. c #7590A8",
"N. c #7E92AE",
"B. c #758CB2",
"V. c #788EB4",
"C. c #7E92B4",
"Z. c #858584",
"A. c #888887",
"S. c #89848B",
"D. c #8C8B8B",
"F. c #868B98",
"G. c #87939C",
"H. c #949495",
"J. c #989797",
"K. c #9A9A9A",
"L. c #8289A6",
"P. c #8C94A2",
"I. c #8599A7",
"U. c #8593AD",
"Y. c #8A94AA",
"T. c #929AA5",
"R. c #979CA5",
"E. c #8295B3",
"W. c #8699B5",
"Q. c #8A9AB5",
"!. c #8297B9",
"~. c #8599BB",
"^. c #8A9DBD",
"/. c #929DB7",
"(. c #9FA1A5",
"). c #93A0A8",
"_. c #82A1B5",
"`. c #8DA0BE",
"'. c #96A2B5",
"]. c #93A3BD",
"[. c #98A6BD",
"{. c #9BAABD",
"}. c #A1A3A7",
"|. c #A2A4A9",
" X c #ACACAC",
".X c #A3ACB8",
"XX c #B0A9BC",
"oX c #AAB3BC",
"OX c #B38BCC",
"+X c #8EA1C0",
"@X c #93A5C2",
"#X c #98A6C0",
"$X c #97A8C5",
"%X c #9BABC6",
"&X c #9EAEC9",
"*X c #9FB0CA",
"=X c #A2AEC4",
"-X c #A0AFC9",
";X c #AAB5C4",
":X c #A2B2CB",
">X c #A8B7CF",
",X c #ACB9CD",
"<X c #BCBFC5",
"1X c #ABBAD1",
"2X c #B3BFD3",
"3X c #C9A9D0",
"4X c #D9A8E6",
"5X c #BEC1C6",
"6X c #B6C3D6",
"7X c #B9C5D7",
"8X c #BDC8D6",
"9X c #BAC6D8",
"0X c #BDC9DB",
"qX c #C5CBD3",
"wX c #C2CCDB",
"eX c #C5D1DC",
"rX c #C3CFE3",
"tX c #C6D4E1",
"yX c #CBD7E6",
"uX c #D4DCE6",
"iX c #D6DDEA",
"pX c #D8DFEA",
"aX c #E6D8F2",
"sX c #DCE2ED",
/* pixels */
"K.H.D.H.D.D.H.D.H.H.H.H.H.H.H.H.H.H.H.K.K.H.K.H.H.H.H.H.H.H.H.K.K.H.H.H.H.H.H.H.J.H.K.K.K.K.K.J. XZ.",
"D.H.<X<X<X<X<X5X<X<X<X<X5X5X<X5X<X<X<X<X<X<X<X<X5X<X<X<X<X<X<X<X<X<X<X<X<X<X<X<X<X<X<X<X<X<X.X! K.Z.",
"H.|.sXpXiXiXiXiXiXiXiXiXiXiXiXiXiXiXiXiXiXiXiXiXiXiXiXiXiXiXiXiXiXiXiXiXiXiXiXiXiXiXiXiXiXtX-XQ P.A.",
"H.(.sX0X6X6X6X6X6X6X6X6X6X6X6X6X6X6X6X6X6X6X6X6X6X6X6X6X6X9X6X6X6X6X6X6X6X6X6X6X6X6X6X2X6X+Xq.W P.A.",
"K.}.sX9XrX9Xn.^.>X>X>X>X>X>X>X>X6X6X9X6X6X6X>X0XwXV.+X>X>X$X@X@X@X@X$X:X>X>X>X>X>X>X9XwXB.w.;.W Y.A.",
"K.|.sX9X,X].=.E.:X:X&X&X*X*X:X>X2X6X6X6X2X1X:X*X%X-.E.-X$X^.~.+X!.~.@X%X&X*X&X-X-X$X%X#X-.;.;.W P.A.",
"K.}.sX9X!.=.=.E.:X&X*X*X*X*X>X6X6X6X6X6X>X:X:XB.=.=.E.%X~.!.V.=X!.+X&X&X*X:X-X:X%X~.b.=.=.;.q.W P.A.",
"J.}.sX9X-XQ.^.$X:X:X:X:X:X1X6X7X9X9X6X1X:X:X:X$X^.^.+X+X^.w.7./.@X&X:X:X:X:X:X%X+X~.C.B.B.b.;.R P.A.",
"H.}.pX9X1X:X:X:X@Xv.v.v.v.U.W.U.Y.W.E.m.v.v.v.v.L.m.x.8.w.O.O.&.x.v.v.v.v.v.v.b.l.C.~.~.~.B.;.W P.A.",
"J.}.sX9X>X:X&X:XW.W W Q Q Q Q Q W W W Q W Q W W R R W R o.o.l z Q W W W W W W W %.C.~.~.~.B.;.W P.A.",
"K.}.sX9X>X:X:X:XW.Q v.#X#X{.#X{./.Q.Q.Q.Q.Q.Q.C.n.n.n.7.o.b u j.E.Q.Q.Q.W.n.b./.6X`.~.~.~.B.;.W P.A.",
"K.|.sX9X>X:X&X:XW.Q Q.0X6X9X6X,X:X:X*X:X:X:X$X^.~.~.E.*.o.a k ^ Z 3.&X%X@X!.~.,XsX`.~.~.+XC.;.W P.A.",
"K.|.sX9X1X-X:X:XW.E Q.7X6X6X2X-X:X&X:X&X:X&X^.~.~.E.=.o.o.0 q ' : = 9.`.~.~.W.>XsX].~.`.&X~.;.W P.A.",
"K.}.sX9X1X-X-X1X'.Q Q.6X6X>X:X-X:X:X:X:X@X^.~.~.~.x.b o.p = B Z $ X j C.~.~.!.>XuX`.`.$X`.V.;.n P.A.",
"(.}.sX8X1X:X1X2X[.W Q.6X>X>X&X%X&X:X&X@X^.~.!.!.:.k p o.D , < = o   o %.z.C.W.>XsX%X@X+X~.B.;.W P.A.",
"K.}.sX9X1X:X6X9X[.W Q.2X:Xk.( ( ( j.%X^.~.~.~./ $ * r O.6.r = B 9 * 0 p b Y P %XsX>X@X~.^.B.;.W P.A.",
"K.(.sX0X6X6X6X6X[.Q N.:X1.< m f.( j ` N.N.E.h.- % > j V | 5 8 B D 9 w q ; 0 > F.eX$X~.^.%XC.q.n P.A.",
"K.(.sX6X6X6X6X6X[.W N.f.- - > e j q 9 H k k z % > , V 5  .4 * 0 u > I M D c D D 6.Q.^.$X*X!.;.W P.A.",
"R.|.sX0X6X6X6X6X[.Q 6.w = % = = = % $ = k k y k , , A S r.d # 9 ~ e.T 1 q = - - = D Q.:X*X~.;.W P.A.",
"K.|.sX0X6X6X6X1XQ.Q k @ @ % % $ - j , = z n u ! U e j P ' h * i a.4Xu.8 q $ $ # # o K @X*X~.;.W P.A.",
"K.|.sX8X6X6X>X>XW.J $ + $ * * N k r t r 9 c D E 9.L.4.F.F.H I c i.aXa.f G.P = & 2 O % 2.:X~.;.W P.A.",
"K.|.sX7X6X1X:X%X2.l @ + ; 0 9 C ' P G $.G Y J 9 M Y.2XyXyXQ.%.0 G OXe.f 7X6XB & 3 2 % E %X~.;.W P.A.",
"K.|.sX9X,X>X[.&.l z r 0 c v i 4 ' ( I XXOX5.0 = * S 3XXX;X[ q : i +.g ; 3.rXT.1 { { . c #XC.;.n P.A.",
"K.|.sX9X0X-X! p l x R O.O.a : 3 S ` A ' 4XOX! q q q s 1 < - j < D M * , : g.eX[ 4 } 3 : 2.z.q.%.K.A.",
"(.|.sX0X.X! p p x v b b x J s 6 4 ' B j ,.t.+.M = f V e B j w - ~ @._ E.9.6.1X,Xj 6 { & K C.[.f.T.A.",
"K.}.sXS.s p a x J v _ &.8.E.k % & < 0 r r +.G M , $ w w ^ j ; @.s.p.L.%X:X-X[.6Xk.C ..K..X'.b.R P.A.",
"(.K.S.. * p x 6.x.R l._.~.E.j - , 9 ` ' : 8 i t A I f # - $ f s.y.g i k.-X:X=X:X8X0X5XX.m J ;.R P.A.",
"K.(.H.m I 6.v.^.b.Q l.~.^.3., , h M A 9.i = % = #.OXs.G O O , ~ 8 : h d.,X9XtXsXuX8XA 4 & w =.W P.A.",
"R.|.pX2X:X&X^.~.x.n h.`.[ h j k j t < ! E 9 X + G u.#.G 8 8 M >.k..X0XyXtXwXK.] G.0X'.e % > E W P.A.",
"K.|.sX0X:X+X~.~.M.n M.h.> < k h < % r <.L @   X 8 g V ( c.{.6XeXeX,X).f.( P.Y.' 5 1.uXF.% > z R P.A.",
"(.}.sX9X&X!.~.~.M.n L j k Z Z h $ o r / @ % k U 3.Y.{.5X6XoXG.[ ' I , : l L '.wXqXT.6XeXm % e n Y.A.",
"K.}.sX9X&X~.~.~.l.j ; k L / U Z , z 2.[ d.I.{.;X{.G.4.[ ^ %   q $.5.h.M = = e 4.eX0X>X0X' $ - c P.A.",
"K.|.sXqX&X~.C.) 5 - < L / L d.M.N.C._.N.k.I.9.y.#.f : V M o % G 0.6.C.r @ = % $ ' =X>X:Xf.j j x P.A.",
"K.|.pX9X&X^.k.7 & > w ) ) k / <.~.L < < > ) ! $.u.+.H H $ H @.y.$.b.9.j + @ $ % j '.*X*X[.V.;.W P.A.",
"H.|.sX0X&X^.%X/.k.z j A L c h d.~.2.@ = $ j Z F u.f <.Q.h.`.i.t.T 6.U = + + + $ [ [.*X%X^.B.;.W P.A.",
"H.|.pX9X>X$X-X:XQ.Q 2.A ^ <.l.C.^.v.9 0 < , j h 8 # N -X>X:X0.g ; 0 % + #   + + ) ;X$X`.~.B.;.R P.A.",
"H.}.sX9X1X-X&X:XW.Q v.W.N.~.~.~.~.U.9 $ r 0 = = %   A &X:X&X#XH @ @ o o X o + , q U.+X~.~.B.;.n P.A.",
"H.}.sX9X1X:X:X:XW.R l.~._._.~.~.!.E.q X @ ; $ - +   P =X*X:X:Xg.@ ; $ X o + C ( w <._.~.~.B.;.W P.D.",
"D.}.pX9X1X:X-X:XW.Q l.~.~.~.~.C.~.W.j + o @ = o   + f.:X&X&X:X,XP X $ $ + h f.H , j c.~.~.n.;.W P.D.",
"D.|.sX9X>X-X:X%XU.Q M.>X>X:X:X:X:X:XB @ @ ; ;   > T.2X6X6X6X9XtX).@ X + % 4.[ e A N B C.~.B.;.W P.D.",
"H.(.sX7X>X*X&X@Xb.Q =XsXsXsXsXsXpXqXM ; * X X A ;XsXsXsXsXsXsXsXuX4.$ X + j w Z ( U t / ~.B.;.n P.D.",
"D.(.sX9X1X%X`.~.!.m.^.$X@X@X-X,X%X+X&.; o o ( =X2X1X1X1X0X0XwX0X6X:XY.U > @ > k U A q H W.V.;.W G.D.",
"H.(.sX9X6X>Xn.C.~.~.~.!.!.^.@X@X~.+X+X8.D g.&X1X2X^.%X1X6X6X6X1X:X:X*X$XU.L w ; j e M Y.B.z.;.W P.D.",
"H.(.sX9XwX,X-.z.~.~.~.~.^.%X@X!.~.@X:X*X:X:X-X6X7X7.`.9X6X6X2X:X-X=X%X^.~.~.M.E t r G.6X;.;.;.W P.D.",
"H.(.sX9X^.7.=.z.~.~.~.^.&X@X~.~.$X*X:X*X:X:X:XE.7.=.^.9X9X1X:X:X:X$X^.~.+XC.+XC.C.m.n.7.=.;.;.R P.D.",
"H.}.pX&XB.-.;.z.V.V.V.C.~.E.V.V.!.^.^.^.^.~.^.z.-.-.E.%X@X+X~.^.^.~.V.C.V.V.V.V.V.C.z.;.;.q.;.W P.D.",
"J.R.9Xz.q.q.q.q.q.q.q.q.q.q.q.q.q.q.q.q.q.q.q.q.q.q.q.q.q.q.q.q.q.q.q.q.q.q.q.q.q.q.q.q.q.7.;.n P.D.",
"K.' %.Q W W W O.W W W W W O.W W W W W W R O.W W W Q Q W W W W W W W W W W W W W W W W W W Q R n T.D.",
" XG.F.f.g.g.g.g.g.g.g.g.g.g.g.g.g.g.g.g.g.g.g.g.g.g.g.g.g.g.j.j.h.j.j.g.g.g.g.g.j.g.g.g.g.j.g.g.'.D.",
"J.(.K.J.K.K.K.K.K.K.K.K.K.K.J.K.K.K.J.J.H.K.H.K.K.K.H.K.K.H.H.K.J.J.J.J.J.J.J.J.J.J.J.J.J.H.J.J.K.] "
};
