/* XPM */
static char *result[] = {
/* columns rows colors chars-per-pixel */
"50 50 80 1 ",
"  c #3E5274",
". c #425577",
"X c #445778",
"o c #475A7B",
"O c #495D7E",
"+ c #5D6673",
"@ c #646C7A",
"# c gray44",
"$ c #797979",
"% c #546C94",
"& c #586F97",
"* c #5D759E",
"= c #6F7F9B",
"- c #5E76A0",
"; c #647BA4",
": c #6C7FA1",
"> c #6C80A1",
", c #6D83AA",
"< c #7386A5",
"1 c #7789A7",
"2 c #7487A9",
"3 c #7489AC",
"4 c #7C8DAB",
"5 c #768CB3",
"6 c #7C8FB0",
"7 c #7C90B3",
"8 c #878786",
"9 c #888787",
"0 c #888788",
"q c #8B8B8A",
"w c #90908F",
"e c #878F9E",
"r c #87909E",
"t c #88909E",
"y c #949494",
"u c #989897",
"i c #93969B",
"p c #9B9B9B",
"a c #8B93A2",
"s c #8191AD",
"d c #979BA1",
"f c #9A9DA3",
"g c #8394B3",
"h c #8698B6",
"j c #8998B4",
"k c #8297BA",
"l c #8599BB",
"z c #8A9DBD",
"x c #9FA1A4",
"c c #8EA0BF",
"v c #93A3BC",
"b c #98A6BD",
"n c #A1A2A6",
"m c #A7A9AC",
"M c #A9AAAE",
"N c #A8ABB2",
"B c #8EA1C0",
"V c #92A4C2",
"C c #97A8C5",
"Z c #99AAC6",
"A c #9EADC9",
"S c #A3AEC1",
"D c #A0AFCA",
"F c #A2B1CB",
"G c #A9B6CF",
"H c #AEBACE",
"J c #B4BDCF",
"K c #AAB7D0",
"L c #ACB9D0",
"P c #B1BED3",
"I c #B6C2D6",
"U c #B8C4D7",
"Y c #BAC5D8",
"T c #BEC9DA",
"R c #C4CDDE",
"E c #C7D0E0",
"W c #CDD5E3",
"Q c #D9DEE9",
"! c #DDE2EC",
"~ c #E4E8F0",
/* pixels */
"pywwwqwwyyyyyyuyyyyyuuyuyyyyyyuuuuuyyyuyuiupppppm$",
"yqmmmmmNMMmmMMMMmmmNMMMMmmMNMMMMMNmmmmMMmMMMMMf@p8",
"wn~!!!!!!!!!!!!!!!!!!!!!!Q!Q!!!!!!!!!!!!!!!!!QPoa8",
"yx!TYYYYYYYYYYYYYYYYYYTIYTTYYYYTYYYYYYYYTITITZ;.a0",
"pn!YTYhZLLKLKHHHPYUPUPLTRjZLLDDAAAAGKLKLLKYTl3-.a0",
"un!YYF&7DDDDDDDFPPUPUPDPH*gDZzklllzZAFAFDZLG**-.a8",
"px!Tj%%6FDDDDAGIYPYUKDD5%%gDzllllzAAFAFAAz2&%*-.a8",
"ux!YZ77vDFFDFKIUYYULGDFB6gzVllllVZFFFFFZVl5<,:* a8",
"ux!YLDFFZjhjjvbbbbbjjjjkhh622222gjjjjjjg2llll5*.a8",
"ux!YLDAFhoXXXXXXXXoXXXXXXXXXXX.XXXXXX...%6llk5-.a8",
"pn!YLADFjX=jjjjjs444444<:::::14444s41::sbllll5-.a8",
"pn!YLDDFjojYIYIPGDFFFDABlllzVAFDFFDACllKQvllB6*.a8",
"px!YLFAFjXjUIIPDDDDDDAzllllzADDDDDAzlllFQVklAk-.a8",
"pn!YLDALvXjYIJFDDDDDCzllllVZADDDDAzllllKQVBCV5-.a8",
"pn!YKFKPbXjIHFDDDDDCVllllzZDDDDDZVllllkKQCVVl5-.a8",
"pn!YLFIUbXjPDDDDDDDzlllllADDDDDAzlllkllLQKChl5-.a8",
"pn!YPPPYCX4GDDDDDCzllllVADDDDDAzllllllkGQCllCk*.t9",
"pn!YYPYYbX4DDDDDCzllllBZDDDDDCVkllllllzPQVlCDl*.a8",
"pn!YUPIYb.4GDDDAzlllllADDDDDDBlklllllzZYQVVDDk*.aq",
"pn!YIYILjX4FDDCzllllBADDDDDAzllllllkzZzPQFADDk*.t8",
"pnQYYPPGjX4DDCBllllBZDDDDDCVlllllllVVVkG!LDDDk*.a8",
"pn!YPPDDjXsDDzlllllADDDDDDzllllllllZCllKQGDDDk-.aq",
"pn!YHDDDjX4AzllllzADDDDDDzllllllkzZVllCI!KDDFl-.a8",
"xn!YYP5cjX2zllllVADDDDDCVllllllhVVVlzCAY!GLPs,-.a8",
"pn!URG%6jX:llllzZDDDDDDBllllllllCCllVAAY!GJI***.a8",
"pnQYj=%gjX:lllzADDDDDAzllllllllAczlZADAY!Gg*%**.a8",
"pn!YCkgz6.:llVCDDDDDCBlllllllBCVlzCADDAY!GZcz7*.a8",
"xn!RLAAB2X:zzADDDDDABllllllllCCllvADDDAY!GGYYc*.a8",
"fn!YLAll2X:zADDDDDDzlllllllzAVllCAFDDDAY!YIIYB*.a8",
"pn!YDzll2.1ADDDDDCzzllllllBCBllCADDDDDAY!TIIGl*.a8",
"pm!TAlll2.6FDDDDAVlllllllzCCllVDDDDDDDFT!YIHFk*.a8",
"pnQYAllz2.4FDDDDzlllllllzZBlzCDDDDDDDFPE!THDDk*.a8",
"pn!UAllVgX4FDDZzlllllllVCBzlCDDDDDDDFPIE!LFDDk*.aq",
"pn!UAlzZjX4FDAVlllllllzVClzBDDDDDDDFLIUR!KAAAk*.t9",
"un!TAlDDgX4FABlllllllzZVllCADDDDDDFPIIIR!KAAl5-.aq",
"yn!UKADDjX4AzlllklllVZBllCAFDDDDDFPIYIFTQKCzl5-.t9",
"yn!THDDDhX1VlllllllzVClzVADDDDDDFLIIPLDYQDBll5;.a9",
"yf!ULDDDjo>lllllllzZVllCDDDDDDDFPIIIPFAYQBlll5*.aq",
"wn!ULDDDhX:kkklkkBZzllCZAAADDDFPIIIGDAAYQVllk5*.aq",
"wx!IHADAs.sLKGGGGPYLGGIUYYYIYITREERTYYYEQVkll5*.tq",
"wf!YGDAV3OS!QQQ!!QQ!!!!!!!!!!!!!!QQQQQQQWVlll5;.aq",
"wn!YLZzll7zVBVZGCBBFGGGGGGGLYTTTPKKKFVVBVlhkl5*.aq",
"yn!YYG27lllklzVVzzBZFAAGLhbGIUUHFDDCBlllllVD5;*.aq",
"wn!YTG%,lllzzCVlzVFFAFFII*cUIILFDDAzlllkllDP&*-.aq",
"yn!Ul*%,lllBABllZFFFFFF7&%cYUGFFDZllllllll5&%** aq",
"unQZ3**,5555k7557kklkkl,**7cclkkkk55555555;*=-- aq",
"uiJ;*-*----***--******************;*****;**-*&&%a0",
"p+XX.......................... .............    aq",
"MpttttttttttrrrrrrrrrrrrrrrrrrrreeeeeeeeeeaaeettN0",
"qywqqqwqqqqwqqqqqqqqqqq8qqq8qqqqq0qq0qqqq000000q0#"
};
