/* XPM */
static char *result[] = {
/* columns rows colors chars-per-pixel */
"50 50 238 2 ",
"   c #1C1719",
".  c #300F0F",
"X  c #281617",
"o  c #321515",
"O  c #391717",
"+  c #341618",
"@  c #3C1B1B",
"#  c #2D241E",
"$  c #36261D",
"%  c #1B1F25",
"&  c #291D21",
"*  c #1D2126",
"=  c #262528",
"-  c #372727",
";  c #34332F",
":  c #272B31",
">  c #2B2D32",
",  c #3B2E32",
"<  c #373538",
"1  c #431A1A",
"2  c #4A1818",
"3  c #571816",
"4  c #541B1C",
"5  c #5B1C1C",
"6  c #651A19",
"7  c #6C1B1A",
"8  c #731C1B",
"9  c #7B1E1D",
"0  c #47271C",
"q  c #6E2F1E",
"w  c #5C1E20",
"e  c #472627",
"r  c #592628",
"t  c #4B3426",
"y  c #593629",
"u  c #482E34",
"i  c #49383B",
"p  c #563737",
"a  c #622222",
"s  c #6C2324",
"d  c #68272B",
"f  c #742222",
"g  c #792728",
"h  c #793B28",
"j  c #6C3030",
"k  c #6A3335",
"l  c #793A3B",
"z  c #4E4537",
"x  c #6D4B33",
"c  c #756037",
"v  c #2B3444",
"b  c #373B44",
"n  c #473E42",
"m  c #533C46",
"M  c #773D42",
"N  c #3D4349",
"B  c #384255",
"V  c #3E5274",
"C  c #464649",
"Z  c #584649",
"A  c #55554B",
"S  c #464B54",
"D  c #574B57",
"F  c #4A525C",
"G  c #565557",
"H  c #794947",
"J  c #70504D",
"K  c #694A57",
"L  c #784D5A",
"P  c #706C55",
"I  c #475568",
"U  c #545765",
"Y  c #55546C",
"T  c #435677",
"R  c #425678",
"E  c #44587B",
"W  c #4A5C7D",
"Q  c #695A68",
"!  c #715A6B",
"~  c #5A646D",
"^  c #50746E",
"/  c #576479",
"(  c #76766D",
")  c #676875",
"_  c #7C6A7A",
"`  c #6C737B",
"'  c #881D1C",
"]  c #A71F1C",
"[  c #89211F",
"{  c #96201F",
"}  c #8C2322",
"|  c #872729",
" . c #972727",
".. c #8C312E",
"X. c #922D31",
"o. c #863736",
"O. c #973738",
"+. c #A72927",
"@. c #B72927",
"#. c #B1302D",
"$. c #A43536",
"%. c #B63836",
"&. c #C72E2C",
"*. c #C73935",
"=. c #D53832",
"-. c #94462F",
";. c #AD443B",
":. c #CA443E",
">. c #8C3941",
",. c #AF3A42",
"<. c #834346",
"1. c #984445",
"2. c #925755",
"3. c #A64B48",
"4. c #B64B47",
"5. c #AB504B",
"6. c #BD5752",
"7. c #8C6B4D",
"8. c #BB655E",
"9. c #885864",
"0. c #A75A64",
"q. c #8D6D71",
"w. c #B76A66",
"e. c #AB6F70",
"r. c #C84B44",
"t. c #D64B44",
"y. c #DD534B",
"u. c #CC635C",
"i. c #D5655C",
"p. c #C9726C",
"a. c #D17068",
"s. c #76816F",
"d. c #8E845A",
"f. c #BA8571",
"g. c #C9827D",
"h. c #DB8377",
"j. c #4D6082",
"k. c #5A6987",
"l. c #536A94",
"z. c #586F99",
"x. c #5D749E",
"c. c #666C88",
"v. c #7A6D81",
"b. c #6B7584",
"n. c #767887",
"m. c #627699",
"M. c #6D7E9C",
"N. c #777E95",
"B. c #5F76A1",
"V. c #647AA2",
"C. c #6279A4",
"Z. c #86798A",
"A. c #957A80",
"S. c #A67E8D",
"D. c #788589",
"F. c #778295",
"G. c #7A8598",
"H. c #6C82A7",
"J. c #7286A9",
"K. c #788AA9",
"L. c #7F91AF",
"P. c #758CB2",
"I. c #7A8FB3",
"U. c #7D91B3",
"Y. c #888887",
"T. c #8B8B8A",
"R. c #8D9285",
"E. c #878895",
"W. c #968A98",
"Q. c #8B9499",
"!. c #949493",
"~. c #969798",
"^. c #9A9A9A",
"/. c #A98889",
"(. c #B98B87",
"). c #A0A29D",
"_. c #878DA7",
"`. c #8C94A2",
"'. c #8895A8",
"]. c #9C9DA0",
"[. c #969BA9",
"{. c #8395B5",
"}. c #8798B5",
"|. c #8B9AB4",
" X c #8297BA",
".X c #8599BA",
"XX c #8A9DBD",
"oX c #949FB7",
"OX c #AB9BAA",
"+X c #9FA1A5",
"@X c #9FA5AD",
"#X c #8DA0BF",
"$X c #9DA7B3",
"%X c #92A2BE",
"&X c #99A5BC",
"*X c #A1A3A6",
"=X c #A4A6AB",
"-X c #A5AAB7",
";X c #B5A4B1",
":X c #A9B2BC",
">X c #B5B5B5",
",X c #B8B8B7",
"<X c #B9B9B9",
"1X c #CC908B",
"2X c #E19186",
"3X c #E0A59B",
"4X c #D3B0B0",
"5X c #E4B2AA",
"6X c #C0C0BF",
"7X c #8B9FC0",
"8X c #8EA1C1",
"9X c #92A4C2",
"0X c #99A7C2",
"qX c #9BABC5",
"wX c #9EAEC9",
"eX c #9FB0CA",
"rX c #A2ADC5",
"tX c #A9B4C6",
"yX c #A2B2CB",
"uX c #A8B7CE",
"iX c #ABB9CF",
"pX c #B4BAC6",
"aX c #ACBBD1",
"sX c #B1BED3",
"dX c #B8C0CF",
"fX c #B6C3D6",
"gX c #B9C5D7",
"hX c #B7C5D8",
"jX c #BAC6D8",
"kX c #BFCADB",
"lX c #C4C6C9",
"zX c #D0C3CA",
"xX c #C6CBD0",
"cX c #C0CBDC",
"vX c #D4D5D6",
"bX c #D7DDE7",
"nX c #D8DEEA",
"mX c #DCE1EC",
/* pixels */
"<X>X>X>X>X>X>X>X>X>X>X<X<X<X,X,X,X,X,X,X<X<X<X<X,X>X>X>X<X<X<X<XpX,X<X,X,X,X,X,X,X,X<X4X<X<X6XdX6X).",
"!.Y.^.^.~.~.[.~.[.[.[.].].].].].^.].].].].^.^.+X+X^.].^.^.].].].].].].^.].].].].].].[.+X].+X~.` $Xd.",
"!.+XmXmXmXmXmXbX4XzXmXmXnXnXmXmXnXnXnXmXmXmXmXmXmXmXmXmXmXmXmXmXmXmXnXnXnXnXmXmXmXmXmXmXmXmXdXE '.Y.",
"!.+XmXcXkXkXcXkXg.6.;XcXcXcXcXcXcXcXcXcXkXkXcXcXkXcXcXcXkXcXcXcXcXcXcXkXcXcXcXcXkXkXkXkXkXeXJ.E `.T.",
"~.*XmXgXjXgX&XyX;Xi.4.OXsXaXaXaXsXgXfXfXhXfXaXgXkX0XyXaXaXuXyXyXuXuXyXaXsXsXaXaXaXaXfXfX0XU.x.R _.T.",
"^.=XmXjXcXiXx.U.rXg.i.5.oXyXyXeXsXgXfXfXfXsXyXfXhXm.{.yXwXXX.XXX7XZ. XwXwXwXyXyXeXwXfXfXx.x.x.R `.T.",
"^.*XmXjXXXm.l.I.yXOXh.i.0.&XuXfXfXfXfXfXaXyXyXU.x.l.{.wXXX.X.X.X X! 0XwXyXwXwXyXwX8XI.m.l.z.x.R `.Y.",
"~.*XmXjX%XH.J.XXrXrX1X2Xr.q.aXhXgXfXfXsXuXyXyX.XJ.J.XX9X.X.X.XXXN.9.wXyXyXyXwXwX9X.XP.V.V.H.B.R `.Y.",
"~.*XmXjXaXwXeXwXqX9X/.a.h.*.e.tXtXtXyX0X%X%X%X9X9X9X{.L.I.L.I.I.L Z.8XXXoX9X9X7XP. X.X.X.X Xz.V `.Y.",
"!.*XmXjXaXwXyXyX|.j.) i.i.i.%.K j.j.W j.W W W W W W W E E W E I d Y j.j.j.Y M Y j. X.X.X.XC.B.V `.Y.",
"~.=XmXjXaXwXeXyX{.j.[.p.t.y.t.#.) V.M.M.M.M.M.m.m.m.m.m.m.m.M.U >.V.M.V.c.k } v.|..X.X.X.XP.z.j.`.Y.",
"^.*XmXjXaXeXeXyX{.j.xX(. .$.%.:.$.W.yXyXyXyXwX8X.X.X{..X8XwXyXH q.yXuX9XL ] X.&XnX9X.X.X7XP.l.j.`.Y.",
"^.*XmXjXaXeXeXyX}.W pX1X6 3 f %.t.$.q.&XyXyX7X.X.X X XZ.Z.Z.Z.l [.yXqX9.{ @.9.uXnX9X XXXwX Xx.T `.Y.",
"^.*XmXjXiXyXeXiXoXT [.w.8 4 @ f r.i.r.>._.8X.X.X XN.K | } } 8 o.Z.qX9.9 ] +.c.uXnX8X7X9X8X Xx.j.`.Y.",
"^.=XmXjXaXyXyXsX&XE |./.f w X + | y.3Xi.>._.7XU.) d ' ] &.&.' | g L g ] @.>.{.uXnX0X9X0X7XP.l.j.`.Y.",
"^.=XmXjXuXyXfXhX&XE |.vX2.9 1   2 +.i.5Xr.L I.Q 4 ' @.=.y.;.+.+. .7 } @.@.v..XuXmXuX9X.X7XC.z.V `.Y.",
"^.*XmXjXsXsXgXhX0XE {.lX3.[ 5 X 1 f  .1Xa.O.Q 2 7 +.=.y.h.3.:.+.@.g f @.>.Z. XuXnXwX7X X9X Xx.T `.Y.",
"^.*XmXjXfXsXgXjX&XE K.rX<.{ 5   4 | X.<.p.$.r f f ] =.t.w.5.a.+.#.X.f  .9.7X7XsXnX8X.X8XwX Xx.j.`.Y.",
"^.=XmXjXgXfXsXjXoXK 9.A.M ' 6   2 | ,. .;.$.5 e - #.*.y.3.(.1X+.@.X.s f K M.8XjXnX7X8XyXyX Xz.T `.Y.",
"^.*XmXjXfXfXhXsX|.m k f 6 4 8 o X f ,.,.f | y 0 4 g r.u.e.(.3.+.+.X.w 4 X.0.0.uXnXyXwXyXwX Xx.V `.Y.",
"^.*XmXjXhXsXsXuX.XE M.A.H 4 6 3 X 2 X.#.| 7 # q  .7 l f.2.j [ [ | >.r 6 5.r.>.uXnXuXwXyXyX Xx.j.`.Y.",
"^.=XmXjXsXsXyXyX}.E v.A.1.f  .' 8 O s r.O.| e x w.5.a s.).a 8 7 w u d | >.O.Z.aXmXuXwXyXyX Xz.T `.Y.",
"^.=XmXjXaXuXyXyX XV ! $.4.w.,.@.[ % 1 g.a. .r e w.3.8 H ^ e 3 2 O @ a l o.>.oXsXnXuXyXwXyX7XB.T `.Y.",
"^.*XmXjXsXuX X9X{.j.K u.5Xw.%.&.g , d g.i.,.d e $.g a [ 6 e 0.-.s f d d j N.yXhXmXuXuXsX XM.B.j.`.Y.",
"].=XmXjXcXfXz.{.}.Y 3.1X_.~ D l g { q 4.*.$.g g ..A z s - l w.H -.g ..r v.eXyXhXmXuXgXjXx.x.x.R `.Y.",
"^.*XmXjX9XV.l.{.}.Y Z._.Z.L e l  .| q h +.| 2 +.3.d.C C ; ..-.z H ;.g @ v.yXwXjXnXiX.XV.l.x.x.R `.Y.",
"^.*XmXkX9XJ.J..X_.R V.! ] @.} 2.a.-.G h f 2 2 7 +.H Q d.P r J d.l g @ X n Z.rXkXmXuX%XU.U.P.x.R `.Y.",
"+X*XmXjXiXyXyX9XK.E H.K ] =.@.r.g.d.c 0 & X & e t C F ^ s.P d.H 4 O r e = i Z.cXmXiXaXfXgX#Xx.R `.Y.",
"^.=XmXjXaXqXXXXXJ.T M.) 6 ] #.7.A s.d.[ @ = < > S ` : s.s.P s.$   r 6.7.- - Z W.bXkXfXfXfX8Xx.R `.Y.",
"^.*XmXjXyX8X.X.XJ.T K.oXz 6 ;.z ) !.-.=.3.< : b F ^ ; ; z P P $ X e P z - 7 - m q.pXhXfXaXXXx.R `.Y.",
"*X*XmXjXwX.X.X.XJ.T G.Y.P 2 x s.Q.f.#.i.7.N * b S F ~ F N C A y i   $ = = - = = C K [.sXyX Xx.R `.Y.",
"^.*XmXjXqX.X.X.XK.W W.w.3.X.-.s.R.7.&.f.A = b F F S F n.Q.~.n.D # X $ -   * = = = > Z Z.rX Xx.E `.Y.",
"^.*XmXkXwX X.X#X'.-XvX3X1X2Xp.-.7.c h x : : C U ~ ~ U N U F.:X:X` < < n.n.S z m , % > n _ {.x.T `.Y.",
"^.=XmXjXwX.XU.`.dXvXvX=XT.4X4Xp.7 z A z < N N ~ ~ S N N N < N ` :X$XG.` `.tX;X3Xe.i * * u c.x.T `.Y.",
"~.=XmXjXqXN.Q.lXvXdXQ.K.E.G p.5.y 0 y t < F F S < ,   X : C C C ` n.-Xs.G U D.-XzXg.O.a 4 p c.R `.Y.",
"~.+XmXjX$XY.e.=X>Xb.F.G.u 6  .;.h 3  .6.z # # $ 1 i z o . + ; A ~ C i G S N Q.~.^.[./.e.0.! l.R `.Y.",
"!.+XmXfX:X!., D ~ V G r 2 9 ' +.[ 8  .5.r + - 1 u E.'.# X . , z ; Z d >.-XG.Y ` E.Q.G.U. XP.B.R `.Y.",
"!.+XmXhX$XE.~ n.K.T d 0 6 ' +.:.%.| 5 0 @ - F i v.yXqXn . X X # @ s | M $XuXqX&XQ.` ) K. XP.x.R `.T.",
"T.+XmXjXuX|.%XyX}.S 1 ..8.$.:.y.y.%.5 0 i b.oXE.0XyXyXv.. . X o X + 4 d 0.rXyXkXmX#XI. X XP.x.R `.T.",
"!.+XmXhXiXeXyXqX{.u @ w.5X1X6.t.t.:.q O ) eXsXsXsXsXsX) e o + O o o X ..O.N.aXcXbX9X X X XP.x.R `.T.",
"!.+XmXjXiXeXwX9Xn.1 : D S.3Xh.u.*.| 1 t ;XmXnXmXmXmXmXq.1 o X + X X r | u F tXmXbX9X.X.X XP.x.E `.T.",
"!.+XmXjXaXqX#X#X) 8 X.m S ! 1Xh.g O . Q sXsXsXsXaXfXaXrXE.D - 1 @ @ ..l N > / wXqX.X X X.XP.x.E `.T.",
"!.+XmXhXfXeXP.U.D d @.@.l S G -.2 O 2 Q yXwXwXuXaX7X0XaXgXsX@Xv._ ! C > S < M. XU..X9XqXP.H.x.R `.T.",
"!.+XmXhXkXdXx.k.> : p $.&.>.b % O O K |.yXwXyXgXgXC.oXgXgXsXsXyXyXyX%X/ F k..X.X.X.XyXfXx.x.x.R `.T.",
"!.+XmXhX%Xm.l.B = : > i o.,.r + e Q 0XyXyXeXyXU.V.l.XXgXhXaXyXyXyXqX#XXX.X.X.X.X.X.XI.V.l.x.B.R `.T.",
"!.+XmXeXP.z.l.U E.F v v b u r m c..X8XXX7X7X8XH.z.x.{.qX0X8X7X7XXX.XP.U.I.P.U.I.U.P.H.z.x.B.x.R `.T.",
"~.+XjXH.C.C.x.M.$X$X/ v * b l.x.C.C.C.C.C.C.C.C.C.C.C.C.C.C.C.C.C.C.C.C.C.C.C.C.C.C.C.C.B.B.x.T `.T.",
")./ k.E E E E E W b.S * v T E E E E E E E E E E E E E E E E E E E E E E E E E E E E E E E E E V `.T.",
"=XQ.G.F.F.G.F.F.F.F.` ` G.G.F.F.F.F.D.F.F.F.F.F.F.F.F.F.F.F.D.N.F.F.F.F.F.F.F.F.F.F.F.F.F.F.F.F.=XT.",
"!.).^.^.^.^.^.^.^.^.^.^.^.~.^.~.^.~.^.^.^.~.^.~.~.^.^.^.~.^.^.^.~.~.^.^.~.^.~.^.^.~.^.~.^.~.~.~.^.( "
};
