/* XPM */
static char *result[] = {
/* columns rows colors chars-per-pixel */
"50 50 34 1 ",
"  c #1F1F1F",
". c #1F1F20",
"X c #201F20",
"o c #222222",
"O c #272826",
"+ c #282927",
"@ c #2B2C2A",
"# c #2F302D",
"$ c #30322F",
"% c #333532",
"& c #363934",
"* c #393B36",
"= c #3B3E39",
"- c #3E413B",
"; c #41453E",
": c #434740",
"> c #454941",
", c #4A4E45",
"< c #4C5047",
"1 c #4F534A",
"2 c #51564C",
"3 c #54594E",
"4 c #565B51",
"5 c #595E53",
"6 c #5C6256",
"7 c #5F6559",
"8 c #61675A",
"9 c #646A5D",
"0 c #676D60",
"q c #696F61",
"w c #6C7365",
"e c #6F7668",
"r c #707768",
"t c #737A6B",
/* pixels */
"111212wtt;O,222<22<21112<OO#<>#,219ttte@%1%*1*%111",
"12111179r;o*;;<21121112;*o@-----;169996@+-------<1",
"11111114w;XXO%,<2<<21<<%oO&<%=<*&<1111<Ooo->%>,%-1",
"2112111,%OoX%>*;2*-<-$@OO6,+>;&->&;113<O  O%>-&>-&",
";<11112;oXoX$;==;=-;-%o@&w6*--*-;*-,<,;--*O+-%#:-*",
"#-11112;ooooo+>;$>>$;>o*3ete%#1*&1=%<*+9te%oooo#-1",
";;&<21*#oX@574%+O%*,&@o*169t7<#->*;;#OO9te% o.O>-*",
"<;&,;;@ XO&9rw;%%@%;# o-<,4we2o--@=;%%=9tt>@ o+;-%",
"#-<%@o  o*129trrw&oooo#-<%-12;oooo #qrttttt5o.oo-1",
"O@$@O ooo-218tttt&   @---;--<-o%---;79tttttq3% o@#",
"o  oooo o*,17www8$ o @,&#,-%>-o>244317wweerr0;@#Oo",
" o   o  oo@<233;+oo o Ooo#-<@oo-5eww222323e8+3ww- ",
"<,<,,,<;o +->1=#o O*;<,-%O#****,5ttr988212,:*7tt6<",
"ttttttt8+Oo@=,+Xoo%1wtt8<#OO;1114errrtr42<@@29tttt",
"t93etttt9= oo+oXo-,10ttee04>#%112345rttr8<@#125ttt",
"972899ttt4=oooo+%,2170ttttw6*%-<<:,2909072@@1139et",
"1111120trt0+X o%111114ettttt4-o->%;111111<@#11118t",
"11111234552ooO;-&,2111446wtw=Oo%=,==1;&<;@o@111144",
"1<,<<,<1>:=ooo;;&;,1366339w9# oO%>=*:-&>& o#1,>1,>",
"1;%>>#;,%+oooo@-1&&19tt7111<@oooo#:<%-<%+oo#1*&1-@",
"*-;--;--:#ooXoo+$;;*24><22;#o%44<o@&;-*+oooo%-:*->",
"#&,#%,**># .+%$+o-;%;>%-,>%oO-wt9%+o>=+ooo.oo*;@-,",
"oooooo;>ooo >rw2 o$<*&<-#ooo;13wtr;oOooXoooooooo+%",
"o   oo$%ooo,9tt9<@O&@@&@@,11*-165,@o,1,O$<++*>21*o",
"@@@@O o Xo%wttttr&X.oXoo%0tw&%,,;oo$qtw%>t%#29rt,+",
"qwww1oooo=<28ttte%oXooo&<23393+ooo*129twwt%#135tew",
"8wtt4ooO%>2159rtr&.oXoX=11>=<;ooo&>2259t91@+;,2999",
"17et4oo@,11113wtw%oOOoo=11*oo+oo@<11112w2Xoo@;121<",
"135r5o=;%>2212344@&894oo@+oo498%o&><&;25;Xooo$=1-%",
";,15>o=:*;>1122,=O&0rw;@Xo+&7wt*o*;;*;1;%oXooo@--*",
"#-<+Xo@&1*%,112=oX@20tt:oX&117r*@1=%<1,+oooooooo=1",
"oO@oXo=:*;>*:,&+o*>1455=XX+*,4552#->*%@O@:4,oo@5;@",
"&%%%%&;-@=>&-;oo+>1>11>*+oo#;>>53o&;@ooX%295O $t2%",
"wtrrtw*oo+%<*ooo@,>%>>%;,Ooooooooooooooo%12;  $wtw",
"79tttt7>oo@%+o+&:==:*#o#%oo.o+=;*oo+132+O%%#o%;777",
"17rwwwt9%oo@Oo@&>%&,%O#@@@#@o#,,;oo%rtw*+X o+;2111",
"123223wwe=+0>.oooooo-2qewww9# oooo*2rttw1oo@,12111",
"112111788=@w8,,,,@Xo;3889ttt2,,@Xo-38wtt3o #1;;1>-",
"<1111111<%%0rrttt*oo;1,<2wetttt-oo-2<8rt2oo@<*&,-$",
"%-11122>+=,345rttq3o;,%:233338tw5o=222332>+O%;,%;,",
"*-;<112;o-2112890t5o*:=:;<21;;33>o$-;,1:,1@o+&-*-;",
"1;%,112>o=1112111q5o+%<=&,1<@ oooooo@-<%*<@ oo@<-#",
"&->*-22>o@=1122;@%@XoO@=>*;<+o  o.ooo#=>;&Oo oo&;,",
"&=;#%;:-O$=>,2;%o%%oXoX%;@%;%$&&**@ooo@:-+oO&&&@&;",
"1*Oooooo#;<$-,+oo87oooXooooO,6wtrt; oXo@+oX*et8ooo",
"$&;2555,O$=;=$o&5ww441o;2+@;<36wtt845=oooo,8tte7* ",
"+*20rtt9%@#>$XO;wwrtt9+19@%21119ttttt4$oo$7wwwwt1$",
"<1127tttw;XOoO>2227tt9o=1o&1112wtttttr0@$112225tew",
"122138wtt;o.@-11113773o@%o&1111688wttq5+%1112137wt",
"111111wtt- o*11111111,o oo&<2111110tt8,+%11111119t"
};
