/* XPM */
static char *result[] = {
/* columns rows colors chars-per-pixel */
"50 50 243 2 ",
"   c #331115",
".  c #082C13",
"X  c #191D28",
"o  c #0E1437",
"O  c #111530",
"+  c #291621",
"@  c #162A28",
"#  c #1E2636",
"$  c #23272C",
"%  c #252A36",
"&  c #362C36",
"*  c #28333B",
"=  c #37353B",
"-  c #471319",
";  c #491D26",
":  c #5D1C24",
">  c #661B21",
",  c #4C292C",
"<  c #6B2731",
"1  c #244931",
"2  c #266E36",
"3  c #635323",
"4  c #0F174D",
"5  c #121C59",
"6  c #282B46",
"7  c #2C3444",
"8  c #293449",
"9  c #353A45",
"0  c #343C4B",
"q  c #2A3158",
"w  c #373C55",
"e  c #0F1A61",
"r  c #111D67",
"t  c #111E72",
"y  c #192466",
"u  c #1F316F",
"i  c #172578",
"p  c #25326C",
"a  c #2B346C",
"s  c #2A356E",
"d  c #2A3573",
"f  c #4C324E",
"g  c #6E3D49",
"h  c #39414B",
"j  c #3C4353",
"k  c #3C4758",
"l  c #2A5052",
"z  c #367B4D",
"x  c #3A4871",
"c  c #534648",
"v  c #434A55",
"b  c #454B59",
"n  c #504653",
"m  c #4A535C",
"M  c #6F4C55",
"N  c #4F6954",
"B  c #72675C",
"V  c #444C64",
"C  c #4B5465",
"Z  c #4A5568",
"A  c #565763",
"S  c #545C6C",
"D  c #424F73",
"F  c #445677",
"G  c #4B5976",
"H  c #435678",
"J  c #44587A",
"K  c #525B75",
"L  c #655A69",
"P  c #785665",
"I  c #5A636C",
"U  c #5B6474",
"Y  c #536D77",
"T  c #59657A",
"R  c #5A657A",
"E  c #65676B",
"W  c #666B77",
"Q  c #616A7C",
"!  c #69727C",
"~  c #7B7372",
"^  c #8E2A32",
"/  c #A9272F",
"(  c #AB2D37",
")  c #C92C35",
"_  c #897929",
"`  c #973945",
"'  c #A83A44",
"]  c #B83A46",
"[  c #ED3842",
"{  c #8D4753",
"}  c #9A4853",
"|  c #B34755",
" . c #8C5366",
".. c #80747C",
"X. c #CB4751",
"o. c #EE4A56",
"O. c #3D824C",
"+. c #61AA70",
"@. c #93917A",
"#. c #172888",
"$. c #1A2F97",
"%. c #2B3B8E",
"&. c #1B2EA9",
"*. c #1D31B1",
"=. c #253AAF",
"-. c #3A4888",
";. c #3E4B90",
":. c #2B40BD",
">. c #515B89",
",. c #4F6081",
"<. c #566486",
"1. c #546A95",
"2. c #596E97",
"3. c #5C749E",
"4. c #636E83",
"5. c #6D6A84",
"6. c #6C7585",
"7. c #64728B",
"8. c #6A768B",
"9. c #777986",
"0. c #737C8C",
"q. c #677898",
"w. c #727D95",
"e. c #596CA9",
"r. c #586AB1",
"t. c #6179A3",
"y. c #6C7DA4",
"u. c #253CC4",
"i. c #2138D1",
"p. c #2D47E1",
"a. c #5576CF",
"s. c #897C89",
"d. c #498D89",
"f. c #77848F",
"g. c #788396",
"h. c #74839C",
"j. c #7B8799",
"k. c #7A869B",
"l. c #459BA1",
"z. c #6D81A2",
"x. c #6D83AA",
"c. c #7485A3",
"v. c #7B8AA3",
"b. c #7888A6",
"n. c #7287AA",
"m. c #7C8DAC",
"M. c #7F91AF",
"N. c #7382B4",
"B. c #758BB2",
"V. c #798FB3",
"C. c #6495B1",
"Z. c #7D91B4",
"A. c #22C1B5",
"S. c #698BE5",
"D. c #3ADDD6",
"F. c #858585",
"G. c #888887",
"H. c #8B8B8A",
"J. c #969286",
"K. c #878C94",
"L. c #838C9B",
"P. c #949494",
"I. c #989799",
"U. c #9A9A9A",
"Y. c #A1979C",
"T. c #8CB096",
"R. c #848EA5",
"E. c #8C94A2",
"W. c #8191AD",
"Q. c #8995AA",
"!. c #959CA7",
"~. c #8395B3",
"^. c #8798B4",
"/. c #8B9AB4",
"(. c #8297BA",
"). c #8599BA",
"_. c #8A9EBD",
"`. c #919FB4",
"'. c #909FB8",
"]. c #AC9CA8",
"[. c #9FA1A5",
"{. c #98A7AA",
"}. c #8EA0BE",
"|. c #95A1B5",
" X c #9CA6B4",
".X c #94A3BC",
"XX c #98A6BD",
"oX c #A1A3A6",
"OX c #A2A4AA",
"+X c #A9AAAC",
"@X c #A7AAB3",
"#X c #B9AABB",
"$X c #AFB1B6",
"%X c #AFB6BE",
"&X c #B1B3B7",
"*X c #9FC7A8",
"=X c #8EA1C0",
"-X c #92A4C2",
";X c #97A8C5",
":X c #9AAAC5",
">X c #97AAC9",
",X c #9DAEC9",
"<X c #95BAC3",
"1X c #9FB0CA",
"2X c #9BAFD1",
"3X c #A0AEC4",
"4X c #A9B3C4",
"5X c #A1B1CB",
"6X c #A8B7CE",
"7X c #ABB9CE",
"8X c #B4BDC9",
"9X c #A6B9D7",
"0X c #ACBAD1",
"qX c #B1BED3",
"wX c #C3BEC4",
"eX c #B3C1D0",
"rX c #B5C2D6",
"tX c #B8C5D7",
"yX c #B6C4D8",
"uX c #B9C6D8",
"iX c #BDC9DA",
"pX c #AFC4E6",
"aX c #B4C9E8",
"sX c #C3C7CD",
"dX c #C3CBD9",
"fX c #CDD2DB",
"gX c #C9D6DA",
"hX c #D4DADE",
"jX c #C6D2E1",
"kX c #CAD7E3",
"lX c #D4DBE5",
"zX c #D9DFEA",
"xX c #C8DDF3",
"cX c #D4E2EB",
"vX c #DCE2EC",
"bX c #D3E8FB",
"nX c #D7E8F8",
"mX c #E4E8EC",
"MX c #E8F2EB",
"NX c #E8EDF2",
"BX c #EAF2FA",
"VX c #F4F6F8",
"CX c #FDFEFE",
/* pixels */
"oXP.P.P.P.P.P.I.P.U.U.U.U.!.U.U.U.U.U.U.U.U.U.U.U.U.I.I.U.U.U.[.U.U.U.U.U.U.U.U.U.U.[.U.U.oX[.oX$X@.",
"P.P.$X$X$X$X$X$X$X$X$X+XI.$X$X$X$X$X$X&X$X$X&X&X&X&X$X$X$X$X$X$X$X$X&X&X$X$X$X$X$X$X&X&X$X$XoXR I.s.",
"H.oXmXvXvXvXzXvXvXvXvXvX4XeXvXzXvXvXvXvXvXvXvXvXvXvXvXvXvXvXvXvXvXvXvXvXvXvXvXvXvXvXvXvXvXzX7XJ R.G.",
"P.oXvXiXtXyXuXyXuXuXyXyXeX!.8XrXuXuXuXuXuXuXyXyXuXuXyXiXtXuXuXuXuXuXyXuXyXuXuXuXuXuXuXyXiX-Xt.H E.G.",
"U.OXvXuXdXuX~.-X7X0X6X7X6XXXE.eXqXrXyXrXrXrX0XiXiX~.;X0X6X1X:X:X:X:X:X5X6X7X7X7X6X6XyXuX^.n.t.H E.G.",
"U.OXvXuXrX:X2.V.5X5X1X1X1X,Xf.L.uXqXrXyXrX0X5X0X7X3.M.:X:X}.(.(.(.).}.,X1X1X1X1X1X;X6X5X2.3.t.x E.G.",
"U.oXvXuX(.1.1.V.5X1X5X5X1X1X0.W OXgXeXyX7X5X5Xk.S w.v.R.M.).).).(.}.1X5X1X5X5X1X,X}.n.2.1.3.3.H E.G.",
"I.oXvXuX:X~.~.XX5X5X5X5X5X7Xj.L.K.%XkX6X5XXXXXR j ^.1X1X^.k.Z.).-X,X5X5X5X5X5X1X=X).Z.x.n.x.3.H E.G.",
"P.oXvXuX0X1X5X5X;X^.W.^.^./.g.A $X~ iXgXE.^.j.0.6.7XbXxXaXW.h.c.Z.~.~.W.~.~.W.m.n.~.m.m.).B.3.H E.G.",
"P.oXvXuX7X5X1X5X^.J F F H G G h ! oX! hXkX5X-X:X5XgXCXCXnX9XW.,.J G 7.G F F H H <.v.v.(.).B.3.H E.G.",
"U.oXvXuX0X,X1X5X/.J h.'././.'.0.m %XU.! mXcX6XkXvXcXCXCXBXaX>Xw.b./.}.M.m.z.z.c.Q.~.).).).B.3.H E.G.",
"U.oXmXuX0X1X1X5X^.F /.uXuXuXtX3XW 6.E @ f.BXcXgXmXVXCXCXBXxXpXc.k.<X/.XXXX:X=X XdXXX).).=XV.3.H E.G.",
"U.oXvXuX7X5X1X5X^.F ^.uXrXrX0X5Xg.C . . * E.VXlXmXCXVXkXBXBXaX}.z.v.|.pXpX=Xm.6XvX-X)._.,X(.3.H E.G.",
"U.oXvXuX0X5X1X0X.XJ /.uXyX7X5X5X:Xm . 1 h h +XVXCXVX{.+.{.gXnXpXc.eXxXaX^.m.~.6XcX}.}.>X=XV.3.H E.G.",
"U.OXvXuX7X5X6XrXXXJ /.rX7X5X5X3X,Xm . 2 Q Y N wXCX&XO.2 2 z gXnXjXBXeXv.m.).(.6XvX:X-X-X_.B.3.H E.G.",
"U.OXvXiX0X5XyXyXXXF /.qX5X5X5X5X:Xh * l f.1XU I sXgX*X+.+.O.{.bXuX|.h.(.).).~.6XvX6X-X).).N.3.H E.G.",
"U.OXvXuXqXqXyXtX-XJ W.6X5X5X5X2XXX= C {.6.L.3XI 4.lXMXT.+.T.hX4Xh.b.).).).).(.6XzX>X)._.>X(.3.H E.G.",
"U.OXvXuXuXqXtXtXXXJ m.9X5X5X5X5XXXk h I OX..h.<XC 0.mXMXmXMX+Xv w._.).).).).=XqXzX=X_.-X5X(.3.H E.G.",
"U.OXvXuXtXyXtXtXXXG b.y.e.r.V.,X.Xm 9 ! +XwXd.D.l.k L.NXmXf.7 $ D n.).).)._.,XtXzX-X=X5X5X(.3.H E.G.",
"U.oXvXiXqXyXqX0X/.J 7.p 5 &.:.e.f.3 3 J.I.hX0.d.A.l v 6.n j k # 5 ;.(.)._.:X_.0XzX5X,X5X5X(.3.H E.G.",
"U.oXvXuXtXqXqX6X^.J 2.a # u u.=.$.V c A F.sXOXY.P M , X & 8.m X 5 d ^.=X-X-X).6XzX0X5X5X5X(.3.H E.G.",
"U.OXmXuXqXqX5X5X^.J >.p 0 x =.i.*.*.&.u.>.J.8XL.$X#X0.= Z h.= o e a ~.:X;X).).7XzX7X,X5X5X(.3.H E.G.",
"U.OXzXuX0X5X5X5X^.J >.p 8 C p u.u.*.&.u.=.U 0.6.R.w.4.j f.E 3 4 r x -X=X)._.;XtXzX6X5X5X5X).3.H E.G.",
"U.OXvXuXuXqXV.=X^.G 2.d p x w i $.&.&.*.=.K L b } ' v * Y E M y 5 q.;X_._.-X,XuXvX6X0XqXV.x.3.H E.G.",
"Y.OXvXyXiX0X2.Z./.H z.z.-.,.3.8.i #.#.#.$.d ..B ( ( d $.p Q.<.t 4 x T h._.5X3XtXvX6XrXeX3.3.t.x E.G.",
"U.oXvXiX_.q.1.Z./.H z.).<.,.).7X7.4 t t #.5 h ~  . .S.p.*.d w q G s y s J v.:XuXvX7X~.3.1.3.t.H E.G.",
"U.oXvXiX;XZ.~._.m.H x.b.S T f.4.K 7 4 t 5 #.%.>.r.a.C.a.i.r , ! w.<.8 o 5 y >.`.fX6X-X}.}.B.3.H E.G.",
"oXoXvXiX0X5X,X=Xn.H q.k 6 j 8 7 0 X O 4 4 >.@.@.w.e.z l p d 9 E.4.XXh.* X O o T ^./.4XtXtX}.3.H E.G.",
"U.oXvXuX0X:X_._.n.J T 7 8 % X v k.S X O o q 3 _ _ ! p #.x 7 7 C R `.8.K 7.R 6.I I 4.h.|.7X=X3.H E.G.",
"[.OXvXuX5X_.).).n.J G 8 6 X 7 R.W.U h % + >   o 7 q #.#.q Z h.4.m C 7 w G v.1XrXsXL.6.Q f.(.3.H E.G.",
"[.oXvXuX,X(.).).n.J K % # Z ^.5Xj.j 0 h n A w u s K f 6 q 7.w.U j.|.U X 7 g.5XiXvXiXrX@XXXZ.z.J E.G.",
"U.oXvXuX,X).).).n.H k.R C /.5X,X_.h.R j 0.!.q.6 # s.X.` v.w.Q S 8.5X'.R j.,XrXkXvXiX0X2X<XZ.3.x E.G.",
"U.oXvXuX,X(.).=X~.H v.j.Q.5X;X-Xg.h 7 m I S 8.4.Q L / ( E.T 6.% L.7X4X5X6X0XqXjXvX0X5X5X5X(.e.F E.G.",
"U.oXmXuX,X)._.>X/.J m.,X5X,X;Xb.* 1 m h I U V U j.E : < C S 7 n NXdXXX5X0XtXuXjXvX6X,X5X,X(.3.F E.G.",
"P.[.vXuX,X_.,X5X^.F m.5X,X-Xk.v $ ! I I !.k.T k % = * $ C 7.j $XVX`..X0XqXuXqXjXzX6X5X,X_.B.3.F E.G.",
"P.[.vXiX7X;X,X5X^.F m.,XW.5.& $ v j h <.6.R Z T A + & * w C Z K.9.9.7XyXuXqX6XdXvX6X>X_.).B.3.H E.G.",
"P.oXvXiX0X1X1X5X^.G R.`.g   , m j 9 % b C C 0 c.w.;   $ $ $ k k % g ].iXyXqX2XuXvX5X=X).).B.3.H E.G.",
"P.oXvXuX7X1X5X5X^.F y.w.: : 9 v T k X X 6 0 0 _.3XR.f     - & 0 0 ` s.yX0X5X5XuXcX-X).).).B.3.H E.H.",
"P.[.vXuX6X1X1X5X^.F w.M } } f j.%Xb % % % % 4.,X5X5X:Xw.c : - ; M { 4X0X5X5X,XuXvX-X(.).).B.3.x E.H.",
"H.[.vXuX0X1X1X,X~.J f.< X. .{.hXCXiXR.6.j I 4XqXqXqXqXtXqX!...P g oXdXuXqXyXqXjXzX-X(.).).B.t.J E.H.",
"P.[.vXuX6X,X<X}.n.,.9./ ] I.fX4XNXCXNX6.U tXmXvXvXvXvXvXmXvXvXvXfXvXvXvXvXvXvXvXlX=X).).).B.3.H E.H.",
"H.[.vXiX0X,X}.}.~.B. .( } fXCXsXXXjX].< v 4X0X0X0XqX7XqXaXdXiXdXrX0X0X0X6X>X>X>X;X).).).).B.3.H E.H.",
"P.[.vXuXrX5XB.Z.).(.{ / P sXCXCXdXL | : E ,X5X7XqX_.:X7XyXuXyX0X6X,X1X:X=X).Z.=X(.).-X;XB.x.3.H E.H.",
"P.[.vXyXdXqX2.x.).~.` ( K G !.mXI.` ^ L 3X5X,XtXtXq._.uXrXrX0X1X1X1X>X}.).).).).).(.5XrX3.3.3.H E.H.",
"P.[.vXiX}.3.1.x.).~.] o.} >.J W ( ^ M -X5X1X1X~.q.1.}.yXyX0X5X1X5X:X_.).Z.=XZ.).).).B.3.1.3.3.H E.H.",
"P.[.cX1XB.1.3.x.V.N.] [ o.X.g < ^ A V._._._.=Xx.2.e.~.>X:X=X=X_._.).V.V.B.C.Z.Z.V.V.x.3.3.t.3.H E.H.",
"P.!.uXx.z.t.t.t.t.t.5.` ) [ ) > n t.t.t.t.t.t.t.t.t.t.t.t.t.t.t.t.t.t.t.x.3.z.x.t.t.t.t.t.x.3.x E.H.",
"U.W <.J J J -.,.x ,.>.D ` ( < V J J J J J J J J J J H H J H J H x ,.x ,.J ,.x x J J J J J J J x E.H.",
"+XK.j.f.g.j.g.g.g.g.g.g.g.s.9.j.g.g.g.g.g.f.g.f.g.g.g.g.g.g.g.g.k.j.h.g.f.f.f.h.f.g.g.g.g.g.f.g. XH.",
"P.oXY.U.U.U.U.U.U.U.U.U.U.U.U.I.U.U.U.P.I.U.I.I.I.I.U.P.P.U.I.U.U.U.P.U.U.U.I.I.U.I.I.I.I.I.I.I.I.~ "
};
