/* XPM */
static char *result[] = {
/* columns rows colors chars-per-pixel */
"50 50 247 2 ",
"   c #2C1016",
".  c #073E14",
"X  c #0E1324",
"o  c #151A27",
"O  c #0F1536",
"+  c #321E2C",
"@  c #1B222E",
"#  c #1B2931",
"$  c #242936",
"%  c #252B3A",
"&  c #33313E",
"*  c #5E161B",
"=  c #681C26",
"-  c #502730",
";  c #722830",
":  c #0C471C",
">  c #0C521D",
",  c #154924",
"<  c #144F28",
"1  c #254837",
"2  c #265F3A",
"3  c #1B632F",
"4  c #247036",
"5  c #0C1448",
"6  c #141B48",
"7  c #0D1752",
"8  c #1A2246",
"9  c #192459",
"0  c #242D49",
"q  c #2C3343",
"w  c #2B334A",
"e  c #343A48",
"r  c #343B4B",
"t  c #2C3659",
"y  c #343C55",
"u  c #0C1869",
"i  c #1B2567",
"p  c #1E2C79",
"a  c #2D3867",
"s  c #4F3C4A",
"d  c #723A48",
"f  c #39424E",
"g  c #2F4452",
"h  c #3B4353",
"j  c #3C455A",
"k  c #395854",
"l  c #3B6B4E",
"z  c #3C4768",
"x  c #3C4E71",
"c  c #424B5B",
"v  c #454C5A",
"b  c #554553",
"n  c #48555A",
"m  c #72444E",
"M  c #496E5E",
"N  c #477758",
"B  c #444E65",
"V  c #4A4F6E",
"C  c #475062",
"Z  c #4B5465",
"A  c #4A556A",
"S  c #575767",
"D  c #535C6C",
"F  c #425577",
"G  c #4A5876",
"H  c #435779",
"J  c #4B5B7C",
"K  c #525C72",
"L  c #555C77",
"P  c #6D5769",
"I  c #5A6374",
"U  c #54627B",
"Y  c #5A6579",
"T  c #5E697D",
"R  c #6F6D75",
"E  c #646B7B",
"W  c #9F1A20",
"Q  c #B6323B",
"!  c #DB2F3D",
"~  c #A63641",
"^  c #C93B48",
"/  c #DF3F4E",
"(  c #EB3845",
")  c #A24A57",
"_  c #A95A6D",
"`  c #866E73",
"'  c #D4444F",
"]  c #ED4350",
"[  c #D86572",
"{  c #2F8341",
"}  c #4D8E5B",
"|  c #62917A",
" . c #5CAA6C",
".. c #18288F",
"X. c #2A3987",
"o. c #313E83",
"O. c #2337B0",
"+. c #39478A",
"@. c #3046BB",
"#. c #4A568B",
"$. c #465696",
"%. c #546581",
"&. c #586686",
"*. c #5C6C8C",
"=. c #556C95",
"-. c #596F98",
";. c #5E7495",
":. c #5B729B",
">. c #626D82",
",. c #606D8C",
"<. c #677486",
"1. c #6A768B",
"2. c #747B8C",
"3. c #666C9B",
"4. c #677897",
"5. c #737D92",
"6. c #717C9B",
"7. c #465AAD",
"8. c #596CAB",
"9. c #5E76A1",
"0. c #5F78A2",
"q. c #6179A2",
"w. c #6478A6",
"e. c #707AA3",
"r. c #3D59D5",
"t. c #3150E8",
"y. c #3458FC",
"u. c #5772D4",
"i. c #436AFE",
"p. c #8E7A8F",
"a. c #2E9A97",
"s. c #4D8D96",
"d. c #6D878B",
"f. c #78848B",
"g. c #758195",
"h. c #7A8497",
"j. c #79859B",
"k. c #79869B",
"l. c #6C81A7",
"z. c #7484A3",
"x. c #7D8BA3",
"c. c #7488AC",
"v. c #7D8EAC",
"b. c #638FB2",
"n. c #7684B3",
"m. c #748BB2",
"M. c #7A8FB3",
"N. c #7D92B5",
"B. c #7F93B8",
"V. c #7BA0B8",
"C. c #5F8EFB",
"Z. c #74B3F4",
"A. c #7DCCFA",
"S. c #87898B",
"D. c #878A9B",
"F. c #948292",
"G. c #89919A",
"H. c #939395",
"J. c #94969A",
"K. c #9A9A9A",
"L. c #89B79A",
"P. c #818EA3",
"I. c #8E89A9",
"U. c #898DAB",
"Y. c #8490A3",
"T. c #8F97A4",
"R. c #8593AC",
"E. c #8A97AD",
"W. c #8C99AD",
"Q. c #9097A5",
"!. c #9D9FA3",
"~. c #959BAA",
"^. c #8395B3",
"/. c #8D9BB4",
"(. c #8497B8",
"). c #8599BA",
"_. c #8A9DBD",
"`. c #919CB6",
"'. c #A79BAC",
"]. c #9EA0A4",
"[. c #9CA3AF",
"{. c #8DA0BF",
"}. c #98A5B7",
"|. c #93A2BC",
" X c #9AA7BB",
".X c #A3A4A7",
"XX c #A3A8B3",
"oX c #A4ACBD",
"OX c #BBA8B5",
"+X c #ABB4BD",
"@X c #C08F9D",
"#X c #8C9CC5",
"$X c #8EA1C0",
"%X c #8BA2CF",
"&X c #93A4C2",
"*X c #9BABC5",
"=X c #98A8C6",
"-X c #9DAEC9",
";X c #98ACD0",
":X c #9FB5D4",
">X c #A1AEC5",
",X c #A5B2C5",
"<X c #AAB3C3",
"1X c #A2B1CB",
"2X c #A9B7CD",
"3X c #ACB9CD",
"4X c #B4BAC9",
"5X c #A3B5D4",
"6X c #AAB7D4",
"7X c #ACBAD1",
"8X c #B1BED3",
"9X c #8CB8EB",
"0X c #BAC2CD",
"qX c #A2C0DE",
"wX c #B5C2D5",
"eX c #BAC4D5",
"rX c #B4C2DC",
"tX c #BBC6D9",
"yX c #BCC8DA",
"uX c #8FCEF3",
"iX c #B8CAE7",
"pX c #B3CEEF",
"aX c #92E9F8",
"sX c #AAF0F8",
"dX c #D6C3CB",
"fX c #C6CBD4",
"gX c #C4CEDE",
"hX c #C9D1DB",
"jX c #D6D9DE",
"kX c #C6D1E1",
"lX c #CCD4E3",
"zX c #CAD7EB",
"xX c #D3D8E4",
"cX c #D9DDE6",
"vX c #D4DCE9",
"bX c #D9DEEA",
"nX c #C6DAF7",
"mX c #DCE1E6",
"MX c #DDE3ED",
"NX c #CAEAF9",
"BX c #D6E7F7",
"VX c #E3E7EB",
"CX c #E5EDF7",
"ZX c #EFF1F5",
"AX c #ECF7FC",
"SX c #F4F6F7",
"DX c #FCFCFD",
/* pixels */
"H.S.H.H.H.H.H.H.H.H.H.H.H.H.H.H.H.H.H.H.H.J.H.H.H.H.H.H.H.H.H.J.H.H.H.H.H.H.H.H.H.H.H.H.H.H.H.S.R .X",
"H.K.cXcXxXcXcXxXcXcXcXcXcXvXcXmXcXcXcXvXcXcXcXcXcXcXcXcXcXcXcXcXcXcXcXcXcXvXcXmXvXcXcXcXcXcXcX4XJ Q.",
"H.!.MXkXgXgXgXgXgXgXgXgXgXgXgXgXgXgXgXkXgXgXgXgXgXkXgXgXgXgXgXgXgXkXgXgXkXgXgXgXgXgXgXgXgXgX2Xc.H Q.",
"H..XMXeXeXeX1X2XwX3XwXwXwX7XwX7XwXwXwXwXwXyXwXwXtX7X1X8XwXwX6X6X7X7X7X3X8X8XwX7X8X8XwXwXwX1XN.:.x W.",
"K..XMXtXgXyX4.m.1X1X1X1X1X1X1X1X2XwX8X7XiXzXgX6XzX|.4.*X-X*X_.)._.5XrX}.-X1X1X1X1X1X1XyX8X:.9.:.H Q.",
"K.].MXtX=Xz.=.c.1X-X1X-X1X1X1X2XwXwXwX2X-X8XZXfXv.q.0.*X&X{.^././.=X2X}.-X1X-X1X1X*X$XB.z.=.9.:.H Q.",
"K.].MXtX$X4.q.N.1X1X-X1X-X1X-XD.3XwXwX,X|. XvXDX<X4.x.-X3X/.k.x.-XrX6X X*X1X1X-X-X&X).l.-.4.q.:.F T.",
"H.].MXtX6X-X*X-X-X-X-X-X-X1Xg.I 2XwXwX2X`./.,XSXDXhXW.}.tX5X/.>.A /.nXiX-X`.*X-X$X).).).x.^.m.:.F T.",
"H.].MXyX7X1X-X1X|.4.*.*.*.*.c C *.;.,.*.*.x.R.fXDXDXyXW.3XBXmXzX|.G R.NXiX|.4.*.&.;.).B.x.).m.:.F T.",
"K.].MXyX7X1X1X1X{.J J *.K j $ c *.&.*.&.*.5.x./.xXDXzX7XG.yXSXVXCX1XK 3XNXiXg.%.*.d.).x.v.B.m.:.F T.",
"K.].MXyX6X1X1X1X{.J z.oXD $ # <.2X*X*X-X*X|.5.j.4XCX}.d.z.k.fXZXVXCX).<.vXnX5Xj.wXkX).x.^.{.m.:.F T.",
"K.].MXyX7X-X1X1X{.J k.g.% o $ k.2X-X-X&X*X-X1.<.1.|.| 3 M U x.fXMXZXzX*. XBXpXY.wXlXR.k.{.=Xm.:.F T.",
"!.].MXyX3X1X1X1X=XJ ,.Z @ X q /.1X1X^.X.+.^.1.v 1 1 3 {  .M J R.0XjXBX{.1.BXnX X+XhXR.R.$X=XN.:.F T.",
"!.].mXyX7X1X1X7X1XU A h # o D 1X1X#Xo.7 5 F /.k : < , > } N U G /.<XMX6X%.iXnX6XQ.4XR.|.=X).m.:.F T.",
"K.].VXyX7X1X7XwX1XU j g @ @ k.2X1X8...u 5 0  XM : : > : , , c B U |.,X1X&.*XpX2X2.W.W.&X_.).m.:.F T.",
"K.].MXyX7X2XwXeX2XK h % X f k.k.|.$.O...i E }.d.. : 1 2 > : f A h <.|.W.|.wXiXE.I g.|.{.).{.m.:.F T.",
"].].MXyXwXwXwXwX,XZ e @ o j j Y <X8X5Xb.^.`.$X+X1 # x k.N < >.1.Z y 5.|. X7X}.n Z E (.).$X-XB.:.H T.",
"K.].MXtXwXeXwXtXW.h % X $ T I W.SXDXAXaXDX6X7.$Xf.z 7.$.+Xd.B.&Xv.A j k.-X}.E , n f.{.$X=X1XN.:.F T.",
"K.].MXtXwXwXwX3XI @ o X z j.K I W.0XsXNXDX8Xr.X.+.7.a p w.hX;X).5XR.j c k.P.l } d.oX&X=X1X-XB.:.F T.",
"K.].MXtXwXtXwX*Xj o X O z >.D f k x d.hXZX%X@...u 9 # w X.4.G.Y s.V.1.g Z x.M M ].gX1X1X1X1XB.:.F T.",
"!.].mXyXwXwX2X1XR.e X O c v E D e g x *.^.u.X.5 u #.4XJ.0 ..L 5.k a.s.g q v Y.P.oXxX2X1X1X1XB.:.F T.",
"K..XMXyXwX3X1X1X|.G 0 8 e r e r q j j j H =.e.6 u e.CX*X% 9 s D.F.P n - $ $ v P.wXmX1X1X-X1XB.:.F T.",
"K.].MXyX7X1X*X-X{.%.J z z g % @ q x.K 8 9 y c.6 u $.e.*.q 5 e ` j.D.OXF.E A Z 5.yXzX1X1X1X=XB.:.F T.",
"!.].MXyXgXyXl.N.|.J ,.^.v.&.%.,.R.|.K 6 6 6 X.7 u ..V c y 8 i n S S P x.).&X*X-XhXmX1XtXwX4.q.:.F T.",
"!.!.MXyX0X>X-.c.|.J ;.)._._.=X5X=XY D S + O 7 7 5 9 a B G >.9 O + Q ) ^.#X*X1X1XgXvX2X3X&X=.9.:.F T.",
"K.!.MXyX_.-.-.c.{.J ;._.*X=X:X=XY c 1.E s = 6 6 6 t ,.,.P.#Xz O X ) R U.`.&X*X=XfXlX1Xc.-.=.9.:.H T.",
"].].VXyX1X$X|.$XN.J 3.p.p.|.}.W.P.>.4.#XW.s 6 7 O a e.$.8.7.#.*.&.4.6.5.e.P. X>X<XXX[.[.,X3X Xz.F T.",
"K..XMXyX7X1X*X&XN.J ,.F.2.<.d.>X/.1.e.rXCXR 7 ..9 t o.+.8.^.>XfXjXmXVXZXSXSXZXDXDXZXSXSXSXjX+Xz.F T.",
"].].MXtX7X*X_.).p.b U.`.n > 3 l _.^.=XzXVX2.z w.U.*X8XbXZXZXfXDXDXDXZXSXiXqXqXiXSXDXcXfX<X<XN.:.F T.",
"].].MXtX1X_.).U.^ _ 5X1XM 4  .| 5X5XnXvXW.(.:XpXBXAXZXlX6X8XmXSXDXAXDXMXZ.A.A.b..XS.v }.wX2X(.:.F T.",
"K..XMXtX1X).R._ ^ I.zXMXG.N L.hX6X5X`.1.=XpXBXAXCXhXB.r.t.u.lXbXhXjXyXqXuXaXuX8.fXT.A P.7X1XN.:.H T.",
"K.].MXtX1X)._ ! ' R.zXjX X[.P.iXoXU A h T  XeXfXjX<Xr.y.y.i.u.9XA.uXaXsXsXsXZ.#XcXfXT.h.1X1XN.;.H T.",
"K.].MXyX5XI.^ ( ( d }.mXR.g.<.CXDXS.j I Y <.Z v e x t.y.y.i.C.Z.uXaXsXpX;Xw.$.oXXXf.I 5.-X1XN.:.F T.",
"K..XMXyX1X_ ( Q ; I xXhXT C g.BXDXhXI f.2.E f q & a O.y.i.C.9XuX9X%Xe.#.0 q I j.Y.R T E.-X=XN.:.F T.",
"H.].MXyX[./ ] d <XzXVXY.j # A |.wX}.g.1.h.I r r y v t p u.#Xn.(.$X>X2X~.D f.<XeXvXvX2X1X=X).c.:.F T.",
"H.].MXeX[ ] ~ ~.vXyX<Xg.&.r % q C I E 5.m = & h & q q n ~.Q.D |.1X1X6X8XwXrX8X1XkXcX1X&X_.).m.:.F T.",
"H..XVXOX^ ^ ` gX|.k.x.g.g.5.T Y Z D z.(.b *   $ % & $ e v Z E -X1X2X8XeXeX8X6X1XgXvX=X$X).).c.-.F T.",
"H.K.VX@X' d E.>Xk.C U g.g.h.v._.N.(.{.=XE     # $ q 1.h.I h.*X1X2X8X8XeX8X6X-X1XgXzX{.).).).m.:.F T.",
"H.].jX[ ' b z 5.x.I s T 1.v.).).)._.*X&Xv.b     s E.*X1X>X1X1X2X8X8X8X8X5X1X>X-XhXzX).B.).).m.-.F Q.",
"H.K.dXQ W = q r P b 5.}. X3X6X3X3X7XwXwX3X}.m - ].gXtXtXtXtXtXgXlXkXlXkXtXtXtXtXvXxX{.).).B.m.:.F Q.",
"H.!.MX` = W = ; P K E.bXbXbXbXMXmXvXmXMXMXMXhX4XMXMXMXMXMXMXMXMXMXMXMXMXMXMXmXvXcXgX_.).).).m.-.F Q.",
"H.'.MX8XR ; ) D.(.v.).&X&X&X&X5X1X{.$X-X2X5X6X6X5X2X2X2XwXyXtXwXwX2X2X6X6X*X$X$X&X$X).).).).m.:.F Q.",
"H.K.MXfX4XXXc.N.(.).).(.)._.&X&X#X).$X=X1X*X1X1XwX*X_.1X7XwXwXwX6X1X-X*X&X$X).).).).).=X=Xm.l.:.F Q.",
"H.!.MXtXgX8X:.w.).).).).).&X*X).).$X*X1X1X1X1X1XgX).4.7XyXwXwX2X1X1X1X=X).).).).).).).2X2X=.9.:.F Q.",
"H.].VXtX|.:.=.l._.).).#X*X&X_.).&X-X1X1X1X1X1X&X4.-.q.8XtXwX1X1X1X1X=X)._.).)._.)._.).c.:.=.9.:.F T.",
"H.].bX-XM.:.:.w.m.m.m.N.).(.M.m.B.).#X).).)._.B.9.:.q.&X&X&X#X_.).).B.m.N.m.m.m.m.m.m.q.-.:.0.:.H T.",
"K.J.fXw.0.0.q.0.0.0.0.q.0.0.0.0.0.q.q.0.q.q.0.q.0.q.q.0.0.0.0.4.0.0.0.0.0.0.0.0.0.0.b.0.0.l.0.-.H T.",
"K.T %.J H H H H H H H H H H H H H H H H H H H H H H H H H H H H H H H H H H H H H H x J x x #.x x J.",
".XJ.h.h.h.h.h.h.h.h.h.h.h.h.h.h.h.h.h.h.h.g.h.h.h.h.h.h.h.h.h.h.j.h.h.h.h.h.h.h.h.h.h.h.h.h.h.h.h.XX",
"H..XK.K.K.K.K.K.K.K.K.K.K.K.H.K.K.K.H.K.K.K.K.K.K.H.K.H.K.K.K.H.H.K.K.K.H.K.K.K.K.H.K.H.K.K.K.H.K.H."
};
