/* XPM */
static char *result[] = {
/* columns rows colors chars-per-pixel */
"50 50 243 2 ",
"   c #0E1419",
".  c #0D2618",
"X  c #151C26",
"o  c #161C37",
"O  c #1B262B",
"+  c #1E2531",
"@  c #242A37",
"#  c #372D37",
"$  c #4B0E11",
"%  c #550E12",
"&  c #5C1319",
"*  c #69151A",
"=  c #77171D",
"-  c #531B22",
";  c #681C22",
":  c #781C23",
">  c #4D252D",
",  c #65252B",
"<  c #782028",
"1  c #6E3139",
"2  c #1E482C",
"3  c #217233",
"4  c #111A4C",
"5  c #1B2449",
"6  c #1C275B",
"7  c #2B344A",
"8  c #353B49",
"9  c #263052",
"0  c #2A3457",
"q  c #0F1B67",
"w  c #1A2667",
"e  c #1B2976",
"r  c #23306E",
"t  c #293677",
"y  c #3C4456",
"u  c #3F5855",
"i  c #316F43",
"p  c #3B4769",
"a  c #364679",
"s  c #3E5274",
"d  c #474856",
"f  c #444C5C",
"g  c #774955",
"h  c #774D57",
"j  c #434D65",
"k  c #4B5463",
"l  c #4C576C",
"z  c #585665",
"x  c #525B6B",
"c  c #435677",
"v  c #435779",
"b  c #46587A",
"n  c #4B597A",
"m  c #525E74",
"M  c #795D6F",
"N  c #4E6671",
"B  c #586377",
"V  c #5A657A",
"C  c #676575",
"Z  c #636C7C",
"A  c #716B76",
"S  c #8A1B23",
"D  c #951E26",
"F  c #8C232B",
"G  c #91242C",
"H  c #9B2B35",
"J  c #86323B",
"K  c #99303A",
"L  c #AB2D37",
"P  c #8E3E48",
"I  c #91474F",
"U  c #AC434D",
"Y  c #B54652",
"T  c #8B5B6B",
"R  c #A95C67",
"E  c #B15561",
"W  c #916F79",
"Q  c #CF6370",
"!  c #50875E",
"~  c #549663",
"^  c #70977B",
"/  c #1B2C8A",
"(  c #182996",
")  c #1F319E",
"_  c #26368B",
"`  c #313F89",
"'  c #263798",
"]  c #1B30AF",
"[  c #2437A5",
"{  c #2439BA",
"}  c #394987",
"|  c #2D4197",
" . c #374895",
".. c #3E5A9E",
"X. c #374AA7",
"o. c #384EAE",
"O. c #2C41B9",
"+. c #465583",
"@. c #45549A",
"#. c #586689",
"$. c #4F639F",
"%. c #546B95",
"&. c #586A97",
"*. c #5C749E",
"=. c #626E84",
"-. c #687488",
";. c #757A89",
":. c #616D92",
">. c #647598",
",. c #727E92",
"<. c #707D9D",
"1. c #465AAB",
"2. c #5869A4",
"3. c #5267B6",
"4. c #6178A3",
"5. c #6A7DA3",
"6. c #707EA3",
"7. c #6A7DB5",
"8. c #1D34CD",
"9. c #283EC5",
"0. c #253FE5",
"q. c #2C43C8",
"w. c #3851D3",
"e. c #304CF0",
"r. c #425DD7",
"t. c #566ECC",
"y. c #4A63D5",
"u. c #6B7DCF",
"i. c #405BEA",
"p. c #4B69F3",
"a. c #867488",
"s. c #A07887",
"d. c #6D888D",
"f. c #768194",
"g. c #788396",
"h. c #7A8599",
"j. c #78869C",
"k. c #6C80A1",
"l. c #6D83AA",
"z. c #7788A6",
"x. c #7B8AA5",
"c. c #7386A8",
"v. c #7688A8",
"b. c #7C8DAB",
"n. c #7686B7",
"m. c #758CB2",
"M. c #788FB4",
"N. c #7489B8",
"B. c #7E93B5",
"V. c #7993D4",
"C. c #6483EA",
"Z. c #848484",
"A. c #888887",
"S. c #8B8B8B",
"D. c #858B9B",
"F. c #8F8B99",
"G. c #949495",
"H. c #979698",
"J. c #9A9A9A",
"K. c #B1838E",
"L. c #828EA6",
"P. c #938FA2",
"I. c #8C94A2",
"U. c #8492AB",
"Y. c #8995A9",
"T. c #8A95AB",
"R. c #9598A6",
"E. c #8495B4",
"W. c #8997B1",
"Q. c #8698B5",
"!. c #8B9AB4",
"~. c #8296BA",
"^. c #8599BA",
"/. c #8A9DBC",
"(. c #929DB3",
"). c #AD92A5",
"_. c #9FA1A5",
"`. c #9DA6AB",
"'. c #8EA0BE",
"]. c #93ABB0",
"[. c #94A3BB",
"{. c #99A5B8",
"}. c #9AA6BC",
"|. c #A1A3A7",
" X c #A5A7AA",
".X c #A4A9B9",
"XX c #A7B9B9",
"oX c #C5ACB6",
"OX c #8597CC",
"+X c #8EA1C0",
"@X c #93A5C2",
"#X c #98A5C2",
"$X c #97A8C5",
"%X c #9BABC5",
"&X c #96A8CC",
"*X c #9DAEC9",
"=X c #9CB3C9",
"-X c #9CADD5",
";X c #A2AEC3",
":X c #A0AFC9",
">X c #A4B1C5",
",X c #A9B6C4",
"<X c #A2B1CB",
"1X c #A9B6CC",
"2X c #ABB9CD",
"3X c #B1B9C5",
"4X c #BCBFC5",
"5X c #B3BDCC",
"6X c #A5B7D4",
"7X c #ABBAD1",
"8X c #B2BED3",
"9X c #92B0E5",
"0X c #A4BFEC",
"qX c #9ACBC8",
"wX c #BAC2CA",
"eX c #ABC0DE",
"rX c #B6C2D6",
"tX c #BAC5D5",
"yX c #B5C5D9",
"uX c #BAC6D9",
"iX c #BDC9DA",
"pX c #AFD3D3",
"aX c #B7CAE4",
"sX c #BCD2F5",
"dX c #C7CCD5",
"fX c #C3CDDB",
"gX c #CDD3DC",
"hX c #C6D8DB",
"jX c #D5D6DB",
"kX c #C8D5E6",
"lX c #D2DAE3",
"zX c #D8DDE7",
"xX c #D6DDEA",
"cX c #C6D7F1",
"vX c #D6E1EA",
"bX c #DCE2EC",
"nX c #DAE8F5",
"mX c #D3E8FE",
"MX c #E5E7EA",
"NX c #E3ECF3",
"BX c #E9F4FB",
"VX c #F4F6F8",
"CX c #FDFEFE",
/* pixels */
"J.G.S.G.S.S.G.G.G.G.G.G.G.G.G.G.G.G.G.H.J.G.G.G.G.G.G.G.G.G.H.J.G.G.G.G.G.G.G.G.G.G.H.J.H.J.J.J. XZ.",
"S.G.4X4X4X4X4X4X4XwX4X4X4X4X4XwX4XwXdX4X4XwXwX4X4XwX4X4X4X4X4X4X4X4XwX4X4X4X4X4X4X4X4X4X4XwX XB I.A.",
"G.|.NXxXxXxXxXxXxXxXxXxXxXxXxXxXxXxXjXxXxXxXxXvXzXxXxXxXzXzXzXxXxXxXxXxXxXxXlXlXxXxXxXxXxXkX>Xb I.A.",
"G.|.xXuXrXrXrX8XrXrXrXrXrXrXrXrXrXrXrXrXrXrXrXyXtXrXrXrXrXrXrXrXrXrXrXrXtX4X3X8XrXrXrXrXrX+X4.v I.S.",
"J.|.bXuXfXuXv.[.1X<X6X1X1X*X%X1X8XrXrXrXrXrX2XiXtXx.(.}.:X$X$X@X#X>XdXdX4X<X<X7X1X1XuXiXb.5.4.s I.A.",
"J.|.bXuX7X[.&.M.<X<X<X<X=X}.W.W.;XrXrXrXrX2X%XI.f.f.W.*X%XW.Q.;XdXvXdX1X*X:X<X:X*X$X%X$X&.*.*.v I.A.",
"J.|.bXuXE.%.&.B.<X*X<X<X<X<X*X!.U.!.>XrX2X}.-.y O k tXnXBXaX>XbXzX<X*X*X<X<X=X:X*X/.l.&.%.4.*.v I.A.",
"H.|.bXuX*X/./.$X<X<X<X<X<X7XyX5X(.E.T.!.[.!.#.# O @ ;.VXCXCXnX1X$X%X<X<X<X<X<X*X+X^.B.m.m.l.*.v I.A.",
"G.|.bXuX7X=X:X<X$Xx.v.x.z.U.W.W.b.f.U.'.'.f.B Z f.{.D.dXCXCXCXvX].z.z.x.x.x.b.x.c.E.^.^.~.m.*.v I.A.",
"J.|.bXuX7X<X:X<XQ.c c b b b v b b b #.x.j.f -.$XyXdXbXdXVXCXCXBXpXx.m :.h.T..XwXgX>X^.^./.m.*.v I.A.",
"J.|.bXuX7X*X<X<X!.c x.%X}.%X}.#X'.!.'.'.B # x 7XVXNXMXMXVXVX`.tXvXiX>XnXVXCXCXCXCXdX^.^.~.m.*.v I.A.",
"J.|.bXuX7X<X*X<XQ.c !.uXuXuXrX7X=X<X<X=XB @ ;.`.CXCXzXMXCXXXi d.kXNXvXbXCXCXCXCXCXzX^./.+XB.*.s I.A.",
"J.|.bXuX2X*X:X<X!.c !.rXrXrX#X@.@.c.<X*Xx + F.{.MXCXMXVXjX~ 3 3 XXlXBXkXCXCXCXVXvX%X/./.%X~.*.v I.A.",
"J.|.bXuX7X<X=X7X[.c !.rXrX2X7.a w X./.<Xk X Z ,XgXCXVXMX4X! ! ^ hXcXBXcXVXVXgXwXjX[.'.$X+XM.*.v I.A.",
"_.|.MXuX7X<X7X8X#Xb !.rX7X$X2.n p X.2.(.k X y [.dXCXVXlXBXMXMXVXmXcXmXaXhX;XQ.6XvX%X@X@X^.M.*.v I.A.",
"J.|.bXuX7X<XrXuX}.b !.8X<XN.$.*.#.' ' V y + @ k ,XCXCXpXBXBXmXmXcXaX8X/.Q.~.^.7XxX1X@X^.^.m.*.v I.A.",
"J.|.bXuXrX8XrXtX}.c U.<X:Xn.} m l / { w 7 X X O V bXnXyXcXsXsXaX-X$X/.E./.^.Q.1XxX@XQ.+X%X~.4.v I.A.",
"J.|.bXuXrXrXrXrX}.b z.{.Q.:.w r r 4 { ) o     . Z aXyX'.<X&X/.B.z.L.=.#.>.4.<.&.#X@X+X@X:X~.*.s I.A.",
"R.|.MXuXrX5X;X.XL.l =.g.,.V a  .} j ` { / o   O d.%X!.U.f.B l j m m 6 e / _ ' t.~.@X+X:X:X~.*.v I.A.",
"J.|.gX{.D.f.L.L.!.:XeX6X;XkXaXyXiXtX1XE.| 5 @ 8 =.g.=.B c y 7 5 0 e ) 9.q.O.p.C.fX6X*X:X:X~.*.v I.A.",
"J.|.dXf.h.T./.#.<.aXmXaX1X-X6XbXCXCXCXuXOX} 5 8 j j 9 w _ t q 1.' q.q.q.O.i.p.OXxX1X:X-X:X~.*.v I.A.",
"_.|.bX5X{.(.$.( +./.[.#Xy.0.t.dXMXdX(.7.0X^.a | } 4 q u.-XOX@.y.9.i.r.O.i.e.y.[.gX7X<X<X:X~.*.v I.A.",
"J.|.bXtX1X:X&.( ( ' ' X.e.e.q.x y l D.+.7.<X7Xt.C.| 1.b.S.F.&.[ { 9.{ ' ' _  .1.@.+X:X<X:X~.4.s I.A.",
"_.|.bXtXfX2X&._ ) ] { 8.e.p.$.9 f h.%Xf 9 p j.kXV. .&XvXlXhX:X+.e q 4 0 B f.#.w.1.L.;X8Xb.6.4.v I.A.",
"J.|.bXuXiX1X&.c.k.a t ) o.%.j m (.;XB @   + + C x.&.yXpXqXpX,X-.r t j x x L.f...9XaX>X1X*.*.*.v I.A.",
"_.|.bXtX/.*.%.E.!.b #.-.:.B f.].(.N 2 u y x d.+ 8 &.B.=XBXCXBXz.0 c.Q.=.6 7.XXb V.kXcX~.#.*.*.v I.A.",
"J.|.MXuX*XE.Q./.M.b k././.[.x.V y 2 ~ ^ V Z >XD.y 7 b Q.nXCXVXf.l ~.$Xx.o o.OX/.N.0XbXaX2.l.*.b I.A.",
"J. XbXuX7X:X*X+Xc.s k././.'.x C Z d.Y.5XL.z G.nX,Xx 7 8 g.fXlXf.x.@X:X$Xj 0 3.E.n.r.#.!.6Xc.4.c I.A.",
"_.|.bXuX7X%X/.^.c.c k.'.*X[.;.-.-.I.Y.{.K.Y g [.6X}.M ; # f ;.g.[.:X:X<X'.8 } t.2.V.c.>.6XV.$.c I.A.",
"J.|.bXuX*X/.^.^.c.c z.*X<X:XZ f x.;.s.R Q Y - y -.}.).Y > N f.L.%X:X:X<X<XW.@ ..X.$XeX+.U.&X#.s I.A.",
"_.|.bXuX*X~.^.^.c.v b.<X:X<XL.L.C ; L G < < & d x D..XR d x XXU.%X=X=X<X=X<X-.@ X.| 3.[ 3.3.} c I.A.",
"J.|.bXuX*X^.^.^.v.b b.<X:X:X}.g., D H : & * * C ,.Z .Xf.dXT.;.R.Y.<X<X<X<X<XrXB 4 ' t q / ) @.c I.A.",
"_.|.MXtX*X~.^.@XE.c b.<X<X*XU.z : F : ; ; $ 1 P.@Xh.>XI.rX7Xl f.g.<X<X=X1X8X8X2Xj 5 [ ( 5 v *.c I.A.",
"G.|.bXuX*X^./.$X!.c b.<X<X*Xh.1 D ; : : & > ;.@X&X<.;.,.8XbX3XZ Z ,X<X<X7XrXyXkXgXZ 5 r +.6.4.c I.A.",
"G.|.bXuX*X/.*X<XQ.b b.<X*X/.M G : : H H & M %X+X^.b.f x `..XT.-.z F..X7XrXrX8XfXbX<Xx.m <.m.*.c I.A.",
"G.|.bXuX6X*X*X<XW.c b.*X+XL.K G S : G S g W.+X+X^.$XC 8 f T T P H L R 5XiX8X6XfXxX1X&X/.Q.n.*.c I.A.",
"G.|.bXuX7X<X:X<XQ.b v.@X^.T S : S * = 1 T.%X/./.'.=X-.f > Y Q Q Q Y P 1XrX8X:XiXbX<X+X^.^.m.*.v I.A.",
"G._.vXuX2X<X:X<XQ.c 5.+XD.H S = = = g P.@X~.^.@X<X<X,.# % U R J ; & , .X8X:X:XuXxX+X^.^.^.m.*.v I.A.",
"S._.bXuX7X=X:X<XQ.b 5.~.a.D S = : T (.+X^.^.&X:X=X<XR.- & % $ $ ; : g :X<X:X:XyXxX@X^.^.~.m.*.s I.S.",
"G._.bXuX2X*X:X*XU.c U.<X.XP D I F.7XrX7X<X<X8XrXrXrX.XP J J * 1 E G W fX8XyX8XkXxX@X^.^.^.m.*.v I.S.",
"G._.bXuX7X*X=X+Xc.+..XbXbXoXK.gXbXxXbXbXbXbXMXxXbXbXdXI R U F = & , 4XnXbXxXvXbXlX+X^.^.^.m.*.c I.S.",
"S.|.bXuX7X%X+X/.~.b./.$X$X$X:X2X*X$X$X6X7X7X7X7X8X8X,XI & & < * : a.2X7X1X$X$X$X$X^.^.~.^.m.*.v I.S.",
"G._.bXuXrX<Xm.B./.^.^.~.~./.@X$X~.^.+X%X:X:X:X7X1X/.$Xh * * % $ g }.*X%X+X~.^.^.~.^.@X%Xm.l.*.v I.S.",
"G._.bXuXfX7X&.c.^.^.^.^./.$X$X~.+X@X*X*X:X:X<XrX8X>.'.W % $ $ 1 (.*X*X/.^.^.~./.^.~.<XrX*.*.*.c I.S.",
"G._.bXuX/.*.%.l.^.Q.OX+X%X@X^.^.$X*X<X*X:X;X:XE.4.&./._., 1 h L.<X*X/.^.^./.~.~.^.^.m.4.%.*.*.v I.S.",
"G.|.vX*Xm.*.&.l.M.B.m.B./.B.M.M.~.+X+X+X/.OX+Xl.*.*.E.#XD.T.+X+X/.^.B.M.M.M.M.M.M.B.5.*.*.*.*.v I.S.",
"J.J.fX5.4.4.4.4.4.4.4.4.4.4.4.4.4.4.4.4.4.4.4.4.4.4.*.4.4.4.4.4.4.4.4.4.4.4.4.4.4.4.4.4.4.*.*.c I.S.",
"J.B #.b v v v v v v v v v v v v v v v v v v v v v v +.v v b v v s +.v s v v v v v v v v v v v s I.S.",
" XF.g.g.g.g.g.g.g.g.g.h.g.g.g.g.g.g.g.g.g.g.g.g.g.g.g.f.g.g.f.g.j.g.g.f.g.f.g.g.f.g.g.g.g.g.f.g.`.S.",
"G.|._.J.J.J.J.J.J.J.J.J.J.J.G.J.J.J.J.G.J.G.J.J.G.J.J.J.G.J.J.J.J.J.J.J.J.J.G.J.J.J.J.G.G.J.J.J.J.A "
};
