/* XPM */
static char *result[] = {
/* columns rows colors chars-per-pixel */
"50 50 248 2 ",
"   c #2F1116",
".  c #0D142B",
"X  c #141A28",
"o  c #161B39",
"O  c #152222",
"+  c #1A2F2C",
"@  c #1D2436",
"#  c #252937",
"$  c #242B3A",
"%  c #2E2B39",
"&  c #451F2A",
"*  c #671920",
"=  c #4A2937",
"-  c #512930",
";  c #702932",
":  c #0A481A",
">  c #0E511E",
",  c #154C27",
"<  c #19472B",
"1  c #145426",
"2  c #295538",
"3  c #2E643C",
"4  c #5E4B37",
"5  c #0D1442",
"6  c #0B144E",
"7  c #0D154C",
"8  c #141D56",
"9  c #1A234B",
"0  c #2D3444",
"q  c #2C354B",
"w  c #323646",
"e  c #343C4B",
"r  c #283151",
"t  c #343D53",
"y  c #101C6B",
"u  c #111E77",
"i  c #1A2773",
"p  c #28336E",
"a  c #323C64",
"s  c #334C46",
"d  c #3B4354",
"f  c #3B4758",
"g  c #326E46",
"h  c #384664",
"j  c #3A497A",
"k  c #366663",
"l  c #424856",
"z  c #434B5C",
"x  c #4E5059",
"c  c #704B56",
"v  c #447158",
"b  c #434D62",
"n  c #464F68",
"m  c #465063",
"M  c #4B5463",
"N  c #49556A",
"B  c #4A556A",
"V  c #555E6E",
"C  c #444D76",
"Z  c #425577",
"A  c #4A5975",
"S  c #43577A",
"D  c #4A5C7C",
"F  c #535E75",
"G  c #685B6F",
"H  c #4C6E6D",
"J  c #56646B",
"K  c #576276",
"L  c #5A6374",
"P  c #55637C",
"I  c #5A667B",
"U  c #5D697E",
"Y  c #65697A",
"T  c #69717C",
"R  c #8A171D",
"E  c #D42E39",
"W  c #853B43",
"Q  c #B83943",
"!  c #D23A46",
"~  c #EB3A47",
"^  c #A0424F",
"/  c #8F4B61",
"(  c #B35767",
")  c #90677B",
"_  c #C64856",
"`  c #EB4A57",
"'  c #CA4F60",
"]  c #388B48",
"[  c #559966",
"{  c #668673",
"}  c #152380",
"|  c #2A3B90",
" . c #1E34B1",
".. c #37468D",
"X. c #304BBE",
"o. c #4C5C8B",
"O. c #455897",
"+. c #5A6886",
"@. c #5D7184",
"#. c #556B95",
"$. c #596B97",
"%. c #5F7293",
"&. c #5B729B",
"*. c #626E83",
"=. c #666C8B",
"-. c #696B8E",
";. c #697589",
":. c #6A768C",
">. c #757C8D",
",. c #677897",
"<. c #6C7D9C",
"1. c #747E94",
"2. c #4655A2",
"3. c #5E76A1",
"4. c #5365B2",
"5. c #6179A3",
"6. c #687BA5",
"7. c #6A7BB0",
"8. c #304EE7",
"9. c #3252E7",
"0. c #3559FE",
"q. c #435ECF",
"w. c #546FD1",
"e. c #446CFA",
"r. c #917889",
"t. c #A0728A",
"y. c #268B86",
"u. c #6D8B88",
"i. c #758395",
"p. c #798496",
"a. c #74829B",
"s. c #7A879C",
"d. c #6E84AA",
"f. c #7484A4",
"g. c #7D8AA1",
"h. c #7588AA",
"j. c #7B8DAC",
"k. c #7F90AD",
"l. c #738BB2",
"z. c #798EB3",
"x. c #7D92B5",
"c. c #7E93B8",
"v. c #58ACB6",
"b. c #7492CD",
"n. c #5F91F6",
"m. c #75BCF3",
"M. c #7CC0F0",
"N. c #81818F",
"B. c #8E8E8F",
"V. c #878898",
"C. c #8C8E9A",
"Z. c #949494",
"A. c #989799",
"S. c #9A9A9A",
"D. c #AD8795",
"F. c #818EA4",
"G. c #8592A6",
"H. c #8F97A4",
"J. c #8492AC",
"K. c #8996AC",
"L. c #8B99AF",
"P. c #9097A5",
"I. c #9D9EA2",
"U. c #9199A9",
"Y. c #818CB7",
"T. c #8294B5",
"R. c #8998B2",
"E. c #8C9AB3",
"W. c #8196B9",
"Q. c #8599BA",
"!. c #8A9DBC",
"~. c #919EB6",
"^. c #939CB9",
"/. c #AC9AAD",
"(. c #9EA0A4",
"). c #9AA1AE",
"_. c #81A6BF",
"`. c #8DA0BF",
"'. c #94A1B5",
"]. c #9BA7B7",
"[. c #94A3BD",
"{. c #9AA5BC",
"}. c #A8A8A8",
"|. c #A3ABBA",
" X c #A7B0BD",
".X c #B2B2BA",
"XX c #95C6A0",
"oX c #8295C9",
"OX c #8598D5",
"+X c #8FA1C0",
"@X c #94A5C3",
"#X c #96A8C5",
"$X c #9AAAC4",
"%X c #9EAEC9",
"&X c #8BBECA",
"*X c #9EB0CD",
"=X c #97A9D2",
"-X c #A2ADC3",
";X c #A2AECA",
":X c #A5B2C5",
">X c #AAB4C2",
",X c #A2B1CB",
"<X c #A9B7CB",
"1X c #ACB9CE",
"2X c #B4B9C5",
"3X c #B3BCCA",
"4X c #ACBBD2",
"5X c #A8B9D7",
"6X c #B1BED2",
"7X c #85ACF0",
"8X c #AABFE1",
"9X c #CBB9C3",
"0X c #B9C1CD",
"qX c #B5C2D5",
"wX c #B9C4D5",
"eX c #B5C5D9",
"rX c #BAC6D9",
"tX c #BCC8DA",
"yX c #93CEF2",
"uX c #A8C7E8",
"iX c #B8CAE6",
"pX c #BCD1EF",
"aX c #95E6F5",
"sX c #AAF4FB",
"dX c #C5C8CE",
"fX c #C4CAD6",
"gX c #C8CCD3",
"hX c #C3CCDD",
"jX c #C9D1DC",
"kX c #D5D7DC",
"lX c #C6D2E2",
"zX c #CAD7E8",
"xX c #C9D7EC",
"cX c #D1D9E6",
"vX c #D8DCE5",
"bX c #D4DCE9",
"nX c #C5D9F6",
"mX c #DDE2ED",
"MX c #CDECF5",
"NX c #D3E5FB",
"BX c #E4E6EB",
"VX c #E6E9EC",
"CX c #E4EBF4",
"ZX c #EAEDF2",
"AX c #E8F1F9",
"SX c #F3F6FA",
"DX c #F5F8FA",
"FX c #FDFEFE",
/* pixels */
"S.B.B.B.B.B.B.B.Z.Z.Z.Z.Z.Z.Z.Z.Z.Z.Z.Z.Z.A.Z.Z.Z.Z.Z.Z.B.Z.A.Z.A.Z.Z.Z.Z.Z.Z.Z.Z.Z.Z.Z.Z.Z.Z.Z.B..X",
"B.A.gXgXgXgXgXgXgXdXgXgXgXgXgXgXgXgXgXgXgXgXgXgXgXgXgXgXgXgXgXgXgXgXgXgXgXdXgXgXgXgXgXgXgXgXgX.XA H.",
"Z.(.BXbXcXcXbXzXcXcXcXcXcXzXcXcXcXcXcXcXcXzXcXcXcXcXcXcXcXcXcXcXlXcXzXcXcXcXcXzXcXzXcXcXcXcXtX!.A H.",
"Z.(.mXrXqXqX6X6XqXqXqXeXqXqXqX6XqXqXeXqXqXqXqXqXeXqX4XqXqXeX4XqXqXqXqXqXqXqXqXqXqXqXqXqXqX6XQ.&.j H.",
"S.(.mXrXhXhXf.x.,X,X<X,X<X,X,X4X4X6XwXwXqXqX4X4XcX$Xd.:XlXiX5X@X`.`.`.@X,X,X,X,X:X,X,XtXwX6.6.&.Z H.",
"S.(.mXtX<X!.#.h.,X%X*X,X*X*X].4X5X$X:X<X6X4X<X%X[.d.<.cXmX<X,XQ.Q.Q.`.@X,X,X,X*X,X%X@X[.R.#.3.&.Z H.",
"S.(.mXtX'.$.#.j.:X*X:X,X*X,X'.$X,X,X$XR.'.,X,X[.,.,.fXDX6X#X'.Q.Q.Q.J.{.,X*X%X*X*X#XQ.d.#.#.3.&.Z H.",
"A.(.mXtX,XJ.@X#X*X,X*X,X$X[.5XiXiXF.K ;.R.eX0X'.[.cXFXbX[.'.T.Q.`.#Xi.>.$X,X*X*X#X!.Q.c.x.z.l.&.Z H.",
"A.I.mXtX4XE.{.%X$Xf.a.a.k.<XpXxX:.K ].tXzXtX'.'.vXFXSX-XR.a.%.%.,.a.P m ;.f.a.a.,.<.W.Q.Q.Q.l.&.Z H.",
"A.I.mXtX4X'.K.*X[.D j P @XpXMXa.+.iXmXVXAX X'.lXFXSX3XG.s.+.A o.D D Z $ d A S S o.@.W.Q.Q.Q.l.&.Z H.",
"S.(.mXtX4X%XG.{.@XD @.G.pXNX>XI iXAXVXZX<Xi.=X`.ZXbX~.i.a.k.`.[.[.[.s.$ @ b a.k.:XwX!.Q.Q.Q.l.&.A H.",
"S.I.mXtX1X*XL.K.`.D @.<XnXbX*.oXAXBXVX1X:.@.g v eX|.1.;.J.$X*X,X,X,X~.e X # I c.rXcX_.Q.Q.@Xz.&.Z H.",
"S.}.mXtXqX%X].J.E.P i.iXNX-X@.xXZXkX1X1.H v ] g v f B K R.j.O.T.,X*X$Xm X X d f.tXcX!.Q.`.%Xx.&.Z H.",
"S.I.mXtX1X%X%XK.J.P E.nXNXa.j.NXgX:Xs.A H [ ] , , < < a.f.p 8 p !.*X@XI X X 0 I wXzX!.@X#X`.l.&.Z H.",
"S.(.mXtX4X%X1X].R.*.[.pXpX+.`.tX-XJ.b F s 3 : : > : < |.D 5 y u 2.!.`.g.$ X 0 z :XvX$X@X`.Q.l.&.Z H.",
"S.(.mXtXqX*XeX>XK.T s.iXeXs.'.[.R.N f b + : > 1 : : 2 .XF 6 y  .| j.c.j.m X # t N.cX,X!.Q.Q.l.&.Z H.",
"S.(.mXtXqXqXqX0XV.Y J %XeX,X[.E.V d V I < 1 { A + : { :X{.%.O.7.d.E.=.f N X X % M >X`._.`.$Xc.&.Z H.",
"S.I.mXtXqXqXqXeXH.M + J [.-X{.+.t I k.Q.H u.G.O.h s 2X7.Y.cXaXpXDXDX3XI B w . # d p.!.[.$X%Xc.&.Z H.",
"S.}.mXtXeXqXqXqX|.U g g p.'.:.t P *X%X@X:X2X..| 4.O.$.X.oXFXMXsXZXcXG.+.Y +.. X @ z T.@X,X,Xc.&.Z H.",
"S.(.mXtXqXeXqXqX{.s.{ 3 u.1.f b k.c.@.T. X4.i # 9 u u X.b.VXDX&X,.U d z :.:.o . . # a.,X%X*Xc.&.Z H.",
"S.(.mXtXqXqX<X,X[.,.u.u.i.d w @.v.y.J N.p i l G.h u 6 y 7.%X{.+.h s f Y M l 9 . O T ^.,X,X,Xc.&.Z H.",
"S.(.mXtXqXqX*X*X[.+.G.s.s $ % s k G V.V i @ >.SX1Xu 5 C 4.4.Z f d q f N l l 9 5 T jX,X,X,X%Xc.&.Z H.",
"S.(.mXtX1X,X%X*X[.D ;.z $ f c D.D.V.C.4 8 X +.R.Y.} 5 $.+.a r t *.f X @ w e r B jXbX;X,X%X%Xc.&.Z H.",
"I.(.mXtXtXtXh.T.[.o.=.j.j.k.j.r.T I T b 7 0 n o.| } 5 ..a 8 6 r J.s.M m h ;.G.E.jXbX,XwX6Xf.6.&.Z H.",
"S.}.mXtXrX1X&.h.[.D %.Q.Q.Q.Q.) Q = % y a A h t r 8 7 8 5 o = n U %X*X!.j.@X,X*XjXbX,X4X:X#.3.&.Z H.",
"S.I.mXtX`.%.#.l.[.D %.Q.Q.Q.!.r.Q & X 9 F.<.+.F a 7 9 5 @ & x :.m V @X8X%X,X;X%XlXbX,Xx.#.#.3.&.Z H.",
"I.I.bXwX-XR.J.G.V.@.i.K.6.$.=.,.-.C a p 3.oX6.,.-.5 o 7 - G Y.1.P I s.`.@X^./.%XlXvX,X$X#X$Xx.&.Z H.",
"S.}.kXdXvXZXVXkXkXmXVXVXmXvXjXfXwX3X>X^.$.O.| ..p 5 u y w 0XiXY.@.g.{.@XG.V.t.H.hXbX<X4XeXtXQ.&.Z H.",
"I.(.mXqX X3XkXDXFXFXAXiXlXkXDXDXDXFXFXjXzXcX5X!.f.=.2.p z BXNX@Xf.E.i.g 1 m r.^..X9X6XrXeXeX_.&.Z H.",
"I.(.mXtX:XQ.G.;.H.gXE.m.M.M.cXFXDXFXFXBXvXbXAXDXAXNXuX@X<.G.jXNX5X*X{ ] ] 2 1.8XD.Q /.eXqX*Xx.%.Z H.",
"I.I.mXtX;XQ.J.f H .Xd.m.aXM.*XkXmXmXBXVXOXq.w.oXjXZXAXnXpX=XK.1XuX8XtXXX] v 6XxX+XQ ( 2XqX%Xx.&.Z (.",
"S.(.mXwX,X!.f.;. XcX Xn.sXsXaXyXyX8XuX=Xw.0.0.9.^.BXSXBXlX+Xn b :.V.rX:XG.-X3XAX8X( ~ (  X*Xx.&.j H.",
"S.I.BXwX*XQ.s.T ).0XfX7.b.uXsXsXaXyXm.n.e.e.0.0.2.T V Y ;.V m m x 0XAXL.Y '.wXjXY _ ~ ! D.:XW.&.Z H.",
"S.}.mXtX*X!.k.M f m *.V q h o.b.7XuXyXm.n.e.0.8.| % $ w K >.V.V C.FXFX,XB +. XCXY ; E ! ' ^.c.&.Z H.",
"Z.(.mXtX,XQ.%X%XE.A <.'.L w V U.L.!.oXoX7Xw.X.i h l w w m s.>.>.'.bXlXj.0 t >.mXjX~.c ! ~ t.l.&.Z H.",
"Z.(.mXtX1X$X%X*X[.D <.%X`.j.T.!.Q.Q.R.I 1.^.+.w e w e d = c r.;.:.@.M 0 # f :.].vXbX2XW ` ' 7.&.Z H.",
"Z.}.mXtX4X*X%X:X[.D ,.#X!.Q.Q.Q.Q.Q.Q.*.L T z # # 0 $ % & * C.L.L l M z L >.p.s.].L.zXr.Q ` ) &.Z H.",
"Z.S.mXtX1X%X*X*X@XD %.Q.Q.Q.Q.Q.Q.Q.Q.`.>.d m L % # #     = [.,X$X].4X:Xg.i.a.>.B :.{.6XW Q / &.Z H.",
"B.I.mXtX4X:X*X:X[.D %.Q.Q.Q.W.T.Q.Q.#X[.!.T.!.%Xg.x #     u.:X1X6XwXeXqX[.p.:.M l i.K.-.z ( ` -.D H.",
"B.I.mXtX4X*X*X%XQ.D 6.<X,X,X<X<X,X1XeXqX,X,X4XrXtX X-   ) eXeXtXhXjXjXhXrX:XC.).) Y V q % R E / j P.",
"Z.(.mXtX1X*X*X@Xx.D J.mXmXmXmXbXmXmXbXmXmXmXmXmXBXvX.XS.bXBXBXmXBXvXBXbXmXmXbXmXgX) - = R R ; F Z P.",
"B.S.mXtX4X$X`.Q.Q.k.Q.@X@X@X#X1X*X@X[.*X1X1X4X1X5X4X4X5XqXtXtXtXrX4X5X4X4X%X@X@X#X@XV.^ R ; -.3.Z P.",
"Z.S.mXtXeX1Xj.z.Q.Q.Q.W.Q.!.+X#X`.Q.`.#X*X%X%X,X6X%XQ.<X4XeXqX6X5X,X,X%X#X!.Q.Q.Q.Q.Q.[.V.;.7.&.Z P.",
"Z.(.mXtXtXwX&.5.Q.Q.Q.Q.Q.@X#X!.Q.`.%X*X%X,X,X,XhX!.,.6XqXwXqX<X%X;X%X$XQ.Q.Q.Q.Q.Q.Q.4X1X&.&.&.Z P.",
"Z.(.mXtX[.&.#.d.Q.Q.T._.$X@X!.Q.+X*X,X*X,X,X;X#X6.$.6.6XrXqX,X,X,X,X#XQ.Q.Q.Q.Q.Q.Q.Q.d.,.#.3.&.Z P.",
"A.(.mX*Xx.&.&.d.z.z.z.z.!.c.z.z.c.+X!.!.oXQ.!.W.&.&.6.@X#X@X`._.!.Q.c.z.z.x.z.z.z.z.z.d.$.&.3.&.Z H.",
"S.Z.tXf.3.5.3.5.3.5.d.&.3.3.3.3.5.5.3.5.,.3.5.5.5.5.3.5.5.5.3.3.3.5.5.5.5.3.5.5.3.3.3.3.3.3.5.&.N H.",
"S.Y o.S S S S S S S D j o.S S S S S S S S S S S S S Z Z S S S Z S S S S S S S S S S S D j o.Z Z j H.",
"}.Z.p.p.p.p.p.p.p.p.p.p.p.p.p.p.p.p.p.p.p.p.p.p.u.s.p.p.p.p.p.p.s.s.p.p.p.i.i.p.i.p.p.i.p.p.p.p.p.}.",
"Z.(.I.S.S.S.S.S.S.S.S.S.S.S.Z.S.Z.S.S.S.Z.S.Z.S.S.S.S.A.A.A.S.A.A.A.Z.S.S.S.A.S.A.S.S.A.A.S.A.A.S.Z."
};
